<svg width="139" height="35" viewBox="0 0 139 35" fill="none" xmlns="http://www.w3.org/2000/svg">
<path fill-rule="evenodd" clip-rule="evenodd" d="M21.8337 34.7165C30.4744 34.7165 35.2093 30.3895 35.2093 24.5029C35.2093 13.1823 17.6315 14.591 17.6315 9.3584C17.6315 7.2955 19.4072 5.93698 22.2479 5.93698C25.3255 5.93698 28.344 6.84284 30.7112 8.75463L34.4991 3.72327C31.4806 1.30809 27.3378 0 22.5438 0C14.3765 0 9.5234 4.52828 9.5234 9.81129C9.5234 21.1821 27.1601 19.1697 27.1601 25.0563C27.1601 27.1191 25.2663 28.7795 21.7744 28.7795C17.8683 28.7795 14.4357 27.2701 12.2459 25.2073L8.33984 30.3895C11.4765 33.0561 15.8562 34.7165 21.8337 34.7165Z" fill="#6F7478"/>
<path fill-rule="evenodd" clip-rule="evenodd" d="M42.6175 13.7203V8.51088H45.4408C48.2177 8.51088 49.6638 6.71568 49.6638 4.60846C49.6638 2.50124 48.2407 0.706196 45.4408 0.706196H40.7815V13.7203H42.6175ZM45.2571 7.1449H42.6175V2.07193H45.2571C46.8407 2.07193 47.7814 3.12566 47.7814 4.60846C47.7814 6.09141 46.8407 7.1449 45.2571 7.1449ZM64.6458 13.7203L61.4327 8.27654C62.9474 8.04243 64.4851 6.9108 64.4851 4.58908C64.4851 2.2086 62.741 0.706196 60.2851 0.706196H55.6031V13.7203H57.439V8.51088H59.6424L62.5803 13.7203H64.6458ZM60.0784 7.1449H57.439V2.07193H60.0784C61.6623 2.07193 62.603 3.12566 62.603 4.60846C62.603 6.09141 61.6623 7.1449 60.0784 7.1449ZM76.1853 13.9544C79.9034 13.9544 81.9917 10.9886 81.9917 7.22305C81.9917 3.45721 79.9034 0.491699 76.1853 0.491699C72.4672 0.491699 70.4015 3.45721 70.4015 7.22305C70.4015 10.9886 72.4672 13.9544 76.1853 13.9544ZM76.1853 12.5691C73.6607 12.5691 72.2835 10.1889 72.2835 7.22305C72.2835 4.21831 73.6607 1.87698 76.1853 1.87698C78.7328 1.87698 80.11 4.21831 80.11 7.22305C80.11 10.1889 78.7328 12.5691 76.1853 12.5691ZM89.6755 13.9544C92.0393 13.9544 93.7837 12.8424 93.7837 10.3838V0.706196H91.9705V10.3448C91.9705 11.7691 91.0525 12.5691 89.5377 12.5691C88.5738 12.5691 87.8623 12.1594 87.2885 11.5545L86.4623 12.7643C87.3343 13.6032 88.4133 13.9544 89.6755 13.9544ZM108.513 13.7203V12.335H102.477V7.74979H108.353V6.38405H102.477V2.07193H108.513V0.706196H100.641V13.7203H108.513ZM120.282 13.9544C122.646 13.9544 123.955 12.6862 124.804 11.2424L123.266 10.6375C122.692 11.7497 121.682 12.5691 120.282 12.5691C117.804 12.5691 116.22 10.3059 116.22 7.22305C116.22 4.14024 117.804 1.87698 120.282 1.87698C121.613 1.87698 122.623 2.57931 123.243 3.63303L124.758 3.02814C123.932 1.68178 122.6 0.491699 120.282 0.491699C116.633 0.491699 114.338 3.32086 114.338 7.22305C114.338 11.1057 116.633 13.9544 120.282 13.9544ZM135.15 13.7203V2.07193H138.799V0.706196H129.71V2.07193H133.337V13.7203H135.15ZM46.198 34.4822C48.1261 34.4822 49.6868 33.7603 50.8114 32.5701V27.575H45.4178V28.9409H49.0668V31.9846C48.516 32.5506 47.4834 33.0773 46.198 33.0773C43.7424 33.0773 42.1357 30.892 42.1357 27.7312C42.1357 24.5509 43.7424 22.3852 46.198 22.3852C47.598 22.3852 48.631 23.0875 49.2734 24.102L50.7425 23.4582C49.8473 22.0729 48.4473 20.9998 46.198 20.9998C42.6175 20.9998 40.2539 23.7119 40.2539 27.7312C40.2539 31.7505 42.6175 34.4822 46.198 34.4822ZM66.3672 34.2285L63.154 28.7847C64.6687 28.5506 66.2065 27.419 66.2065 25.0972C66.2065 22.7167 64.4623 21.2144 62.0064 21.2144H57.3244V34.2285H59.1604V29.0191H61.3637L64.3016 34.2285H66.3672ZM61.7998 27.6531H59.1604V22.5801H61.7998C63.3836 22.5801 64.3243 23.6338 64.3243 25.1166C64.3243 26.5996 63.3836 27.6531 61.7998 27.6531ZM77.9066 34.4626C81.6247 34.4626 83.7133 31.4968 83.7133 27.7312C83.7133 23.9654 81.6247 20.9998 77.9066 20.9998C74.1886 20.9998 72.123 23.9654 72.123 27.7312C72.123 31.4968 74.1886 34.4626 77.9066 34.4626ZM77.9066 33.0773C75.3821 33.0773 74.0049 30.697 74.0049 27.7312C74.0049 24.7265 75.3821 22.3852 77.9066 22.3852C80.4542 22.3852 81.8314 24.7265 81.8314 27.7312C81.8314 30.697 80.4542 33.0773 77.9066 33.0773ZM94.9545 34.4626C98.0526 34.4626 99.8661 32.8821 99.8661 30.014V21.2144H98.0526V30.0336C98.0526 32.0431 96.9282 33.0773 94.9545 33.0773C93.0037 33.0773 91.8788 32.0431 91.8788 30.0336V21.2144H90.0429V30.014C90.0429 32.8821 91.8788 34.4626 94.9545 34.4626ZM108.582 34.2285V29.0191H111.406C114.182 29.0191 115.629 27.2238 115.629 25.1166C115.629 23.0094 114.205 21.2144 111.406 21.2144H106.746V34.2285H108.582ZM111.222 27.6531H108.582V22.5801H111.222C112.805 22.5801 113.746 23.6338 113.746 25.1166C113.746 26.5996 112.805 27.6531 111.222 27.6531Z" fill="#6F7478"/>
<path fill-rule="evenodd" clip-rule="evenodd" d="M2.35554 34.1381V0.578125H0V34.1381H2.35554Z" fill="#6F7478"/>
</svg>
