<svg width="140" height="36" viewBox="0 0 140 36" fill="none" xmlns="http://www.w3.org/2000/svg">
<path fill-rule="evenodd" clip-rule="evenodd" d="M22.3626 35.6616C30.9943 35.6616 35.7243 31.3391 35.7243 25.4586C35.7243 14.1498 18.1648 15.5571 18.1648 10.3299C18.1648 8.26916 19.9386 6.91206 22.7764 6.91206C25.8508 6.91206 28.8661 7.81698 31.2309 9.72677L35.0148 4.70065C31.9994 2.28799 27.8609 0.981262 23.072 0.981262C14.9132 0.981262 10.0651 5.50482 10.0651 10.7823C10.0651 22.1413 27.6835 20.131 27.6835 26.0114C27.6835 28.0721 25.7916 29.7308 22.3034 29.7308C18.4014 29.7308 14.9723 28.223 12.7848 26.1623L8.88281 31.3391C12.0162 34.0029 16.3913 35.6616 22.3626 35.6616Z" fill="url(#paint0_linear_1360_1389)"/>
<path fill-rule="evenodd" clip-rule="evenodd" d="M22.3626 35.6616C30.9943 35.6616 35.7243 31.3391 35.7243 25.4586C35.7243 14.1498 18.1648 15.5571 18.1648 10.3299C18.1648 8.26916 19.9386 6.91206 22.7764 6.91206C25.8508 6.91206 28.8661 7.81698 31.2309 9.72677L35.0148 4.70065C31.9994 2.28799 27.8609 0.981262 23.072 0.981262C14.9132 0.981262 10.0651 5.50482 10.0651 10.7823C10.0651 22.1413 27.6835 20.131 27.6835 26.0114C27.6835 28.0721 25.7916 29.7308 22.3034 29.7308C18.4014 29.7308 14.9723 28.223 12.7848 26.1623L8.88281 31.3391C12.0162 34.0029 16.3913 35.6616 22.3626 35.6616Z" fill="url(#paint1_linear_1360_1389)" fill-opacity="0.7"/>
<path fill-rule="evenodd" clip-rule="evenodd" d="M43.1228 14.6875V9.48349H45.9432C48.7172 9.48349 50.1618 7.69015 50.1618 5.58513C50.1618 3.4801 48.7402 1.68693 45.9432 1.68693H41.2888V14.6875H43.1228ZM45.7597 8.11893H43.1228V3.05124H45.7597C47.3417 3.05124 48.2814 4.10388 48.2814 5.58513C48.2814 7.06654 47.3417 8.11893 45.7597 8.11893ZM65.1282 14.6875L61.9184 9.24939C63.4316 9.01552 64.9676 7.88507 64.9676 5.56577C64.9676 3.18777 63.2254 1.68693 60.772 1.68693H56.0949V14.6875H57.9289V9.48349H60.13L63.0648 14.6875H65.1282ZM60.5655 8.11893H57.9289V3.05124H60.5655C62.1478 3.05124 63.0875 4.10388 63.0875 5.58513C63.0875 7.06654 62.1478 8.11893 60.5655 8.11893ZM76.6557 14.9213C80.3699 14.9213 82.456 11.9587 82.456 8.19699C82.456 4.43508 80.3699 1.47266 76.6557 1.47266C72.9414 1.47266 70.878 4.43508 70.878 8.19699C70.878 11.9587 72.9414 14.9213 76.6557 14.9213ZM76.6557 13.5375C74.1337 13.5375 72.7579 11.1597 72.7579 8.19699C72.7579 5.19538 74.1337 2.85649 76.6557 2.85649C79.2006 2.85649 80.5763 5.19538 80.5763 8.19699C80.5763 11.1597 79.2006 13.5375 76.6557 13.5375ZM90.1318 14.9213C92.4932 14.9213 94.2358 13.8105 94.2358 11.3544V1.68693H92.4244V11.3155C92.4244 12.7383 91.5074 13.5375 89.9942 13.5375C89.0313 13.5375 88.3205 13.1282 87.7473 12.524L86.922 13.7325C87.7931 14.5705 88.871 14.9213 90.1318 14.9213ZM108.95 14.6875V13.3036H102.92V8.72319H108.789V7.35887H102.92V3.05124H108.95V1.68693H101.086V14.6875H108.95ZM120.707 14.9213C123.068 14.9213 124.375 13.6544 125.223 12.2121L123.688 11.6079C123.114 12.719 122.105 13.5375 120.707 13.5375C118.231 13.5375 116.649 11.2767 116.649 8.19699C116.649 5.1174 118.231 2.85649 120.707 2.85649C122.036 2.85649 123.045 3.55809 123.664 4.61072L125.178 4.00646C124.352 2.6615 123.022 1.47266 120.707 1.47266C117.061 1.47266 114.769 4.29887 114.769 8.19699C114.769 12.0756 117.061 14.9213 120.707 14.9213ZM135.559 14.6875V3.05124H139.204V1.68693H130.125V3.05124H133.747V14.6875H135.559ZM46.6997 35.4278C48.6257 35.4278 50.1848 34.7066 51.3083 33.5177V28.5277H45.9202V29.8923H49.5655V32.9328C49.0152 33.4981 47.9837 34.0243 46.6997 34.0243C44.2465 34.0243 42.6416 31.8412 42.6416 28.6838C42.6416 25.5068 44.2465 23.3433 46.6997 23.3433C48.0982 23.3433 49.1301 24.0449 49.7719 25.0584L51.2394 24.4152C50.3451 23.0314 48.9466 21.9594 46.6997 21.9594C43.1228 21.9594 40.7617 24.6687 40.7617 28.6838C40.7617 32.6989 43.1228 35.4278 46.6997 35.4278ZM66.8478 35.1743L63.638 29.7362C65.1511 29.5024 66.6873 28.3719 66.6873 26.0525C66.6873 23.6745 64.9449 22.1738 62.4916 22.1738H57.8144V35.1743H59.6485V29.9703H61.8496L64.7844 35.1743H66.8478ZM62.2852 28.6058H59.6485V23.538H62.2852C63.8673 23.538 64.8071 24.5906 64.8071 26.0719C64.8071 27.5534 63.8673 28.6058 62.2852 28.6058ZM78.3752 35.4082C82.0895 35.4082 84.1758 32.4455 84.1758 28.6838C84.1758 24.9219 82.0895 21.9594 78.3752 21.9594C74.6611 21.9594 72.5976 24.9219 72.5976 28.6838C72.5976 32.4455 74.6611 35.4082 78.3752 35.4082ZM78.3752 34.0243C75.8533 34.0243 74.4776 31.6465 74.4776 28.6838C74.4776 25.6822 75.8533 23.3433 78.3752 23.3433C80.9201 23.3433 82.2959 25.6822 82.2959 28.6838C82.2959 31.6465 80.9201 34.0243 78.3752 34.0243ZM95.4053 35.4082C98.5002 35.4082 100.312 33.8293 100.312 30.9642V22.1738H98.5002V30.9838C98.5002 32.9912 97.377 34.0243 95.4053 34.0243C93.4566 34.0243 92.3329 32.9912 92.3329 30.9838V22.1738H90.4988V30.9642C90.4988 33.8293 92.3328 35.4082 95.4053 35.4082ZM109.019 35.1743V29.9703H111.839C114.613 29.9703 116.058 28.1769 116.058 26.0719C116.058 23.9669 114.636 22.1738 111.839 22.1738H107.185V35.1743H109.019ZM111.656 28.6058H109.019V23.538H111.656C113.238 23.538 114.178 24.5906 114.178 26.0719C114.178 27.5534 113.238 28.6058 111.656 28.6058Z" fill="white"/>
<path fill-rule="evenodd" clip-rule="evenodd" d="M2.90387 35.0838V1.55878H0.550781V35.0838H2.90387Z" fill="white"/>
<defs>
<linearGradient id="paint0_linear_1360_1389" x1="4.17553" y1="-5.21164" x2="42.3056" y2="-3.15756" gradientUnits="userSpaceOnUse">
<stop stop-color="#F3EBBB"/>
<stop offset="1" stop-color="#B78D31"/>
</linearGradient>
<linearGradient id="paint1_linear_1360_1389" x1="17.5963" y1="-48.0666" x2="69.4045" y2="-30.968" gradientUnits="userSpaceOnUse">
<stop offset="0.0252352" stop-color="white" stop-opacity="0.1"/>
<stop offset="0.448382" stop-color="#C06500" stop-opacity="0.7"/>
<stop offset="0.763925" stop-color="#E47B00" stop-opacity="0.3"/>
<stop offset="1" stop-color="white" stop-opacity="0"/>
</linearGradient>
</defs>
</svg>
