<svg width="91" height="90" viewBox="0 0 91 90" fill="none" xmlns="http://www.w3.org/2000/svg">
<path d="M29.3953 79.886H62.6175L88.1561 49.1813C89.7723 47.4778 90.3846 45.0134 89.7633 42.7165C89.1421 40.4203 87.3817 38.6405 85.1441 38.0477C82.9074 37.4542 80.534 38.1388 78.9186 39.843L54.7311 62.1819H40.5747C39.043 62.1819 37.628 61.3384 36.8617 59.9692C36.0962 58.6 36.0962 56.9127 36.8617 55.5429C37.628 54.1737 39.043 53.3301 40.5747 53.3301H51.2916C53.5888 53.3301 55.7111 52.0651 56.8601 50.0105C58.0083 47.9566 58.0083 45.4259 56.8601 43.372C55.7111 41.3175 53.5888 40.0524 51.2916 40.0524H24.4995L0 65.3473L19.6003 90L29.3953 79.886Z" fill="#D6AA65"/>
<path d="M49.0013 31.2028H49.0656L63.5338 16.2543C65.3346 14.5154 66.3745 12.0965 66.4156 9.551C66.4567 7.00551 65.4954 4.5519 63.7521 2.7513C62.0081 0.951418 59.6317 -0.0411713 57.1662 0.00130958C54.7008 0.0437904 52.358 1.11735 50.6737 2.97675L49.0015 4.64773L47.383 2.97675H47.3838C45.6988 1.11743 43.356 0.0437904 40.8905 0.00130958C38.4251 -0.0411713 36.0486 0.951418 34.3054 2.7513C32.5614 4.55196 31.6007 7.00551 31.6419 9.551C31.683 12.0965 32.7228 14.5153 34.523 16.2543L49.0013 31.2028Z" fill="#D6AA65"/>
</svg>
