<svg width="77" height="90" viewBox="0 0 77 90" fill="none" xmlns="http://www.w3.org/2000/svg">
<path d="M74.996 22.5203L65.8928 13.4179C64.5438 12.1006 62.5983 11.596 60.7787 12.0919C58.96 12.587 57.5389 14.008 57.043 15.8276C56.548 17.6463 57.0526 19.5917 58.3699 20.9416C58.3699 20.959 61.6525 24.2415 61.6525 24.2415L58.1926 27.7189C55.0669 25.047 51.5007 22.9401 47.6525 21.4912V10.8981C47.7412 4.61644 41.4779 -0.138659 35.3033 0.00308759C28.5076 0.00308759 22.8296 4.86525 22.8114 10.8981V21.4912C-13.5459 35.6861 -4.2644 89.2719 35.2319 89.9999C66.2823 90.0712 82.1989 52.1887 60.7645 30.1501L64.1715 26.7431L67.4715 30.0438V30.0612C68.8236 31.3777 70.7722 31.88 72.5926 31.3817C74.4129 30.8835 75.8331 29.4592 76.3275 27.6381C76.821 25.8162 76.314 23.8699 74.9951 22.5202L74.996 22.5203ZM35.2319 75.804C29.6101 75.7984 24.2205 73.5622 20.2458 69.5874C16.2702 65.6124 14.0347 60.222 14.0284 54.6004H17.5771C18.553 78.0038 51.9106 78.022 52.886 54.6004C52.8828 49.9189 51.0221 45.4307 47.7117 42.1205C44.4015 38.8102 39.9124 36.9486 35.2309 36.9454V33.3967C63.3369 34.55 63.3551 74.6329 35.2309 75.803L35.2319 75.804ZM20.7004 42.5696L23.202 40.0681L30.956 47.8039C32.5878 46.7939 34.5261 46.3979 36.4241 46.687C38.3213 46.9753 40.0544 47.9306 41.3116 49.3802C42.5695 50.8306 43.2698 52.6801 43.288 54.5994C42.9505 65.2282 27.5136 65.2282 27.177 54.5994C27.1857 53.0786 27.6221 51.5909 28.4364 50.3061L20.7004 42.5696ZM26.3609 10.8967C26.574 1.47512 43.6254 0.924561 44.1046 10.8967V20.3722H44.1038C41.7797 19.7757 39.4024 19.4137 37.0063 19.2894V12.3694H33.4576V19.2894C31.0615 19.4122 28.6843 19.7749 26.3601 20.3722L26.3609 10.8967ZM69.9738 27.54L60.8706 18.4376C60.1997 17.7429 60.2076 16.6387 60.8888 15.9535C61.5693 15.2683 62.6727 15.2525 63.3729 15.9179L72.4936 25.0385H72.4928C73.1606 25.738 73.1455 26.843 72.4595 27.5243C71.7735 28.2055 70.6685 28.2126 69.973 27.5401L69.9738 27.54ZM35.2307 50.0917C36.8277 50.1115 38.2946 50.9749 39.0869 52.3611C39.8798 53.7473 39.8798 55.4495 39.0869 56.8357C38.2948 58.2219 36.8277 59.0854 35.2307 59.1051C33.6338 59.0853 32.1677 58.2218 31.3746 56.8357C30.5816 55.4495 30.5816 53.7473 31.3746 52.3611C32.1675 50.9749 33.6338 50.1114 35.2307 50.0917Z" fill="#D6AA65"/>
</svg>
