<svg width="36" height="80" viewBox="0 0 36 80" fill="none" xmlns="http://www.w3.org/2000/svg">
<path fill-rule="evenodd" clip-rule="evenodd" d="M23.0082 33.5232C30.452 31.7127 35.9786 25.0036 35.9786 17.0033C35.9786 7.6126 28.3654 0 18.9753 0C9.58508 0 1.97191 7.6126 1.97191 17.0033C1.97191 25.0043 7.4985 31.7121 14.9417 33.5232V58.4202H2.06919C0.936491 58.4202 0.00993428 58.9544 0.00993428 60.0871C0.00993428 60.8303 -0.0124178 61.578 0.00993428 62.319C0.0490509 63.6132 0.00434478 64.5504 2.08092 64.5235H8.51161V69.9735H2.08035C0.34754 69.9735 0.0295309 70.9799 0.0368267 71.8919C0.0429735 72.7189 0.0351504 73.5627 0.0172686 74.4093C-0.0056429 75.5415 0.935944 76.0768 2.06866 76.0768H14.9412V77.9403C14.9412 79.073 15.8682 80 17.0009 80H20.9466C22.0793 80 23.0063 79.0735 23.0063 77.9403L23.0068 33.5236L23.0082 33.5232ZM18.9754 14.8218C16.2066 14.8218 13.9618 12.5771 13.9618 9.80818C13.9618 7.03924 16.2065 4.79458 18.9754 4.79458C21.7448 4.79458 23.9896 7.03981 23.9896 9.80818C23.9896 12.577 21.7449 14.8218 18.9754 14.8218Z" fill="#D6AA65"/>
</svg>
