<svg width="51" height="54" viewBox="0 0 51 54" fill="none" xmlns="http://www.w3.org/2000/svg">
<path d="M48.9481 49.8755L45.0647 53.2022C43.6783 54.3921 41.5898 54.2328 40.4042 52.8456L28.5178 38.9776C26.0134 40.079 23.2551 40.6968 20.3473 40.6968C9.10913 40.6968 0 31.5829 0 20.3473C0 9.11021 9.1088 0 20.3473 0C31.5887 0 40.6946 9.1101 40.6946 20.3473C40.6946 24.4129 39.4908 28.1905 37.4336 31.3687L49.3005 45.215C50.4934 46.6009 50.3316 48.6856 48.9486 49.8755L48.9481 49.8755ZM20.7275 7.28493C13.4924 7.28493 7.63235 13.1498 7.63235 20.379C7.63235 27.6102 13.4928 33.4762 20.7275 33.4762C27.9507 33.4762 33.8193 27.6102 33.8193 20.379C33.8193 13.1494 27.9503 7.28493 20.7275 7.28493ZM20.4183 10.6234C15.4411 10.6234 11.4078 14.6593 11.4078 19.6366C11.4078 21.9169 12.2839 23.9752 13.6775 25.5628L27.0751 13.6081C25.427 11.7868 23.0701 10.6236 20.4189 10.6236L20.4183 10.6234Z" fill="url(#paint0_linear_107_1139)"/>
<path d="M48.9481 49.8755L45.0647 53.2022C43.6783 54.3921 41.5898 54.2328 40.4042 52.8456L28.5178 38.9776C26.0134 40.079 23.2551 40.6968 20.3473 40.6968C9.10913 40.6968 0 31.5829 0 20.3473C0 9.11021 9.1088 0 20.3473 0C31.5887 0 40.6946 9.1101 40.6946 20.3473C40.6946 24.4129 39.4908 28.1905 37.4336 31.3687L49.3005 45.215C50.4934 46.6009 50.3316 48.6856 48.9486 49.8755L48.9481 49.8755ZM20.7275 7.28493C13.4924 7.28493 7.63235 13.1498 7.63235 20.379C7.63235 27.6102 13.4928 33.4762 20.7275 33.4762C27.9507 33.4762 33.8193 27.6102 33.8193 20.379C33.8193 13.1494 27.9503 7.28493 20.7275 7.28493ZM20.4183 10.6234C15.4411 10.6234 11.4078 14.6593 11.4078 19.6366C11.4078 21.9169 12.2839 23.9752 13.6775 25.5628L27.0751 13.6081C25.427 11.7868 23.0701 10.6236 20.4189 10.6236L20.4183 10.6234Z" fill="url(#paint1_linear_107_1139)" fill-opacity="0.7"/>
<defs>
<linearGradient id="paint0_linear_107_1139" x1="-8.78621" y1="-9.64283" x2="62.2942" y2="-5.05273" gradientUnits="userSpaceOnUse">
<stop stop-color="#F3EBBB"/>
<stop offset="1" stop-color="#B78D31"/>
</linearGradient>
<linearGradient id="paint1_linear_107_1139" x1="16.2638" y1="-76.3714" x2="108.985" y2="-39.6885" gradientUnits="userSpaceOnUse">
<stop offset="0.0252352" stop-color="white" stop-opacity="0.1"/>
<stop offset="0.448382" stop-color="#C06500" stop-opacity="0.7"/>
<stop offset="0.763925" stop-color="#E47B00" stop-opacity="0.3"/>
<stop offset="1" stop-color="white" stop-opacity="0"/>
</linearGradient>
</defs>
</svg>
