<svg width="60" height="50" viewBox="0 0 60 50" fill="none" xmlns="http://www.w3.org/2000/svg">
<path d="M51.0905 5.14145C51.0905 3.93283 50.1124 2.94397 48.9023 2.94397H44.7179C43.5105 2.94397 42.5316 3.93323 42.5316 5.14145L42.5312 5.9591L51.0902 12.4687L51.0905 5.14145Z" fill="url(#paint0_linear_107_1131)"/>
<path d="M51.0905 5.14145C51.0905 3.93283 50.1124 2.94397 48.9023 2.94397H44.7179C43.5105 2.94397 42.5316 3.93323 42.5316 5.14145L42.5312 5.9591L51.0902 12.4687L51.0905 5.14145Z" fill="url(#paint1_linear_107_1131)" fill-opacity="0.7"/>
<path d="M58.5693 21.0198L31.9175 0.744155L31.809 0.67605C31.1718 0.230101 30.4358 0 29.6585 0C28.8978 0 28.1756 0.228554 27.5557 0.652192L27.4233 0.736843L4.91364 17.8536L0.750741 21.0202C-0.0872954 21.6539 -0.246593 22.8568 0.388667 23.6894C0.767289 24.1812 1.33444 24.4409 1.90855 24.4409C2.31102 24.4409 2.71466 24.3154 3.05906 24.0523L8.53174 19.8928L28.8557 4.44866L28.8649 4.43596C29.0969 4.26627 29.3705 4.18355 29.6587 4.18355C29.9534 4.18355 30.2259 4.26628 30.4671 4.43596L30.4967 4.45597L56.2639 24.0402C56.6083 24.311 57.0154 24.438 57.4217 24.438C57.992 24.438 58.5553 24.1783 58.935 23.6881C59.5676 22.8558 59.4056 21.653 58.5702 21.0193L58.5693 21.0198Z" fill="url(#paint2_linear_107_1131)"/>
<path d="M58.5693 21.0198L31.9175 0.744155L31.809 0.67605C31.1718 0.230101 30.4358 0 29.6585 0C28.8978 0 28.1756 0.228554 27.5557 0.652192L27.4233 0.736843L4.91364 17.8536L0.750741 21.0202C-0.0872954 21.6539 -0.246593 22.8568 0.388667 23.6894C0.767289 24.1812 1.33444 24.4409 1.90855 24.4409C2.31102 24.4409 2.71466 24.3154 3.05906 24.0523L8.53174 19.8928L28.8557 4.44866L28.8649 4.43596C29.0969 4.26627 29.3705 4.18355 29.6587 4.18355C29.9534 4.18355 30.2259 4.26628 30.4671 4.43596L30.4967 4.45597L56.2639 24.0402C56.6083 24.311 57.0154 24.438 57.4217 24.438C57.992 24.438 58.5553 24.1783 58.935 23.6881C59.5676 22.8558 59.4056 21.653 58.5702 21.0193L58.5693 21.0198Z" fill="url(#paint3_linear_107_1131)" fill-opacity="0.7"/>
<path d="M11.4258 43.4152C12.7068 42.4205 14.5749 40.2193 17.8489 37.3828C21.1221 34.5458 22.6585 32.8605 23.3107 32.9233C23.5308 32.9433 24.0687 33.2361 24.0687 33.2361L28.5421 28.8723V27.9993C28.5421 27.9993 29.3663 27.1997 30.0212 25.9988C30.6749 24.7994 30.9431 23.9614 29.197 22.1064C27.4509 20.2514 23.5224 20.032 23.5224 20.032L22.8675 18.5053C22.8675 18.5053 27.3336 16.3632 33.0162 19.3783C38.3626 22.2153 39.9626 25.151 40.1707 25.7632C40.3335 26.2419 39.4227 28.646 41.4655 29.1581C42.0346 29.302 42.7198 28.9592 42.7198 28.9592L45.2702 31.4902C45.2702 31.4902 44.4725 33.017 43.2724 34.3875C42.0716 35.7542 40.5432 35.745 40.5432 35.745L38.2527 33.6726C38.2527 33.6726 38.4712 32.9081 38.2527 31.7091C38.0345 30.5082 34.7613 30.5082 33.5603 30.836C32.361 31.1638 31.2698 32.1438 31.2698 32.1438L30.6907 31.816L26.3588 36.292C26.3588 36.292 27.1295 36.6125 26.475 37.4856C25.8202 38.3586 22.7677 41.9047 19.6449 44.9124C17.6684 46.8136 14.7044 49.4936 14.3038 49.7275C14.1434 49.8214 13.9437 49.9999 13.9556 49.9999H46.0082C49.113 49.9999 51.6547 47.4674 51.6547 44.3542L51.6551 30.1876V26.1517C51.6551 25.6357 51.4027 25.1513 50.9891 24.8496L30.8188 9.50689L30.7876 9.48842C30.5464 9.32644 30.2755 9.23254 29.98 9.23254C29.6906 9.23254 29.4175 9.32643 29.185 9.48842L29.1666 9.49573L13.0861 21.7228L8.97443 24.8491C8.5581 25.1511 8.30762 25.6355 8.30762 26.1512V46.285" fill="url(#paint4_linear_107_1131)"/>
<path d="M11.4258 43.4152C12.7068 42.4205 14.5749 40.2193 17.8489 37.3828C21.1221 34.5458 22.6585 32.8605 23.3107 32.9233C23.5308 32.9433 24.0687 33.2361 24.0687 33.2361L28.5421 28.8723V27.9993C28.5421 27.9993 29.3663 27.1997 30.0212 25.9988C30.6749 24.7994 30.9431 23.9614 29.197 22.1064C27.4509 20.2514 23.5224 20.032 23.5224 20.032L22.8675 18.5053C22.8675 18.5053 27.3336 16.3632 33.0162 19.3783C38.3626 22.2153 39.9626 25.151 40.1707 25.7632C40.3335 26.2419 39.4227 28.646 41.4655 29.1581C42.0346 29.302 42.7198 28.9592 42.7198 28.9592L45.2702 31.4902C45.2702 31.4902 44.4725 33.017 43.2724 34.3875C42.0716 35.7542 40.5432 35.745 40.5432 35.745L38.2527 33.6726C38.2527 33.6726 38.4712 32.9081 38.2527 31.7091C38.0345 30.5082 34.7613 30.5082 33.5603 30.836C32.361 31.1638 31.2698 32.1438 31.2698 32.1438L30.6907 31.816L26.3588 36.292C26.3588 36.292 27.1295 36.6125 26.475 37.4856C25.8202 38.3586 22.7677 41.9047 19.6449 44.9124C17.6684 46.8136 14.7044 49.4936 14.3038 49.7275C14.1434 49.8214 13.9437 49.9999 13.9556 49.9999H46.0082C49.113 49.9999 51.6547 47.4674 51.6547 44.3542L51.6551 30.1876V26.1517C51.6551 25.6357 51.4027 25.1513 50.9891 24.8496L30.8188 9.50689L30.7876 9.48842C30.5464 9.32644 30.2755 9.23254 29.98 9.23254C29.6906 9.23254 29.4175 9.32643 29.185 9.48842L29.1666 9.49573L13.0861 21.7228L8.97443 24.8491C8.5581 25.1511 8.30762 25.6355 8.30762 26.1512V46.285" fill="url(#paint5_linear_107_1131)" fill-opacity="0.7"/>
<defs>
<linearGradient id="paint0_linear_107_1131" x1="41.0302" y1="1.24313" x2="53.1769" y2="2.00287" gradientUnits="userSpaceOnUse">
<stop stop-color="#F3EBBB"/>
<stop offset="1" stop-color="#B78D31"/>
</linearGradient>
<linearGradient id="paint1_linear_107_1131" x1="45.3098" y1="-10.5267" x2="61.2843" y2="-4.40538" gradientUnits="userSpaceOnUse">
<stop offset="0.0252352" stop-color="white" stop-opacity="0.1"/>
<stop offset="0.448382" stop-color="#C06500" stop-opacity="0.7"/>
<stop offset="0.763925" stop-color="#E47B00" stop-opacity="0.3"/>
<stop offset="1" stop-color="white" stop-opacity="0"/>
</linearGradient>
<linearGradient id="paint2_linear_107_1131" x1="-10.4033" y1="-4.36443" x2="71.7651" y2="9.51659" gradientUnits="userSpaceOnUse">
<stop stop-color="#F3EBBB"/>
<stop offset="1" stop-color="#B78D31"/>
</linearGradient>
<linearGradient id="paint3_linear_107_1131" x1="19.2571" y1="-34.5664" x2="80.5605" y2="28.881" gradientUnits="userSpaceOnUse">
<stop offset="0.0252352" stop-color="white" stop-opacity="0.1"/>
<stop offset="0.448382" stop-color="#C06500" stop-opacity="0.7"/>
<stop offset="0.763925" stop-color="#E47B00" stop-opacity="0.3"/>
<stop offset="1" stop-color="white" stop-opacity="0"/>
</linearGradient>
<linearGradient id="paint4_linear_107_1131" x1="0.70563" y1="1.95267" x2="62.1257" y2="6.49824" gradientUnits="userSpaceOnUse">
<stop stop-color="#F3EBBB"/>
<stop offset="1" stop-color="#B78D31"/>
</linearGradient>
<linearGradient id="paint5_linear_107_1131" x1="22.3794" y1="-48.4242" x2="99.3388" y2="-13.53" gradientUnits="userSpaceOnUse">
<stop offset="0.0252352" stop-color="white" stop-opacity="0.1"/>
<stop offset="0.448382" stop-color="#C06500" stop-opacity="0.7"/>
<stop offset="0.763925" stop-color="#E47B00" stop-opacity="0.3"/>
<stop offset="1" stop-color="white" stop-opacity="0"/>
</linearGradient>
</defs>
</svg>
