<svg width="47" height="60" viewBox="0 0 47 60" fill="none" xmlns="http://www.w3.org/2000/svg">
<path fill-rule="evenodd" clip-rule="evenodd" d="M34.156 20.8432L24.4232 13.1977C23.7415 12.662 22.7818 12.662 22.1 13.1977L12.3672 20.8432C11.7591 21.3208 11.662 22.2076 12.1592 22.8061C12.6384 23.3828 13.5002 23.4535 14.0902 22.9902L15.3467 22.0034V30.892C15.3467 31.7905 16.0749 32.5188 16.9735 32.5188H20.3074V29.5331C20.3074 27.9238 21.6116 26.6198 23.2207 26.6198C24.8296 26.6198 26.134 27.9239 26.134 29.5331V32.5188H29.5492C30.4478 32.5188 31.1765 31.7906 31.1765 30.892V22.0034L32.4329 22.9902C33.0226 23.4535 33.8844 23.3828 34.3639 22.8061C34.8611 22.2076 34.764 21.3208 34.1559 20.8432" fill="#D6AA65"/>
<path fill-rule="evenodd" clip-rule="evenodd" d="M23.3591 39.1936C14.6689 39.1936 7.62422 32.149 7.62422 23.4587C7.62422 14.7685 14.6692 7.72387 23.3591 7.72387C32.0488 7.72387 39.094 14.7685 39.094 23.4587C39.094 32.149 32.049 39.1936 23.3591 39.1936ZM23.3591 0C10.4785 0 0 10.479 0 23.3591C0 35.9376 21.5891 58.6742 22.5084 59.6363C22.7306 59.8686 23.0378 60 23.3592 60C23.6803 60 23.9875 59.8686 24.2097 59.6363C25.1288 58.6745 46.7181 35.9376 46.7181 23.3591C46.7181 10.4796 36.2391 0 23.359 0" fill="#D6AA65"/>
</svg>
