<svg width="113" height="60" viewBox="0 0 113 60" fill="none" xmlns="http://www.w3.org/2000/svg">
<path d="M26.0171 59.9859C25.7105 56.586 25.8771 53.2883 26.8929 50.1088C27.5192 48.1272 29.1199 46.8439 31.0795 46.2356C33.8689 45.3598 36.7308 44.731 39.5312 43.9014L39.5304 43.9022C41.2116 43.4416 42.8507 42.841 44.4309 42.1068C47.9538 40.3747 48.5364 37.87 46.8964 34.2925L46.8956 34.2917C45.0541 30.3327 43.4284 26.2757 42.0263 22.1399C40.7697 18.3606 40.7126 14.4171 41.755 10.5001C43.2485 4.83161 47.4869 1.02408 53.3595 0.226543C57.6135 -0.351333 61.6797 0.0779684 65.2862 2.66781C70.6702 6.52999 71.6797 12.0827 71.0509 18.1087C70.4684 23.6983 68.4235 28.8835 65.7961 33.8319C63.5432 38.064 64.3901 40.7555 68.8613 42.4977C71.782 43.6339 74.8825 44.3088 77.9017 45.1956C79.1411 45.5616 80.4258 45.8283 81.6019 46.3405C83.8852 47.3367 85.5696 48.9241 85.8519 51.5625C86.1475 54.3261 86.3836 57.0934 86.6597 59.9835H26.0094L26.0171 59.9859Z" fill="#D6AA65"/>
<path d="M21.8423 60H0C0.330767 57.4578 0.311229 54.9313 1.09478 52.6808C1.53268 51.439 3.15529 50.3246 4.50193 49.7515C6.54683 48.8757 8.82154 48.5496 10.9829 47.9342V47.9334C11.9026 47.6746 12.7987 47.3391 13.6628 46.9309C16.5249 45.5687 17.1443 43.7233 15.6553 40.9049C13.5361 36.898 11.933 32.7318 11.5561 28.1775C11.0635 22.3776 13.7613 17.7202 18.7816 16.2533C26.9486 13.8691 33.9088 18.7212 33.7627 27.0719C33.7486 29.0894 33.5961 31.103 33.3076 33.0993C32.7735 36.5149 31.4379 39.6288 28.6393 41.8074C24.2906 45.1925 22.7542 49.8648 22.1865 55.032C22.0137 56.6343 21.9589 58.2616 21.8432 59.9998L21.8423 60Z" fill="#D6AA65"/>
<path d="M112.067 60H90.7797C90.2605 56.7157 89.8116 53.519 89.247 50.3442C88.6645 47.1122 86.9215 44.5006 84.4019 42.4619C80.568 39.37 79.0424 35.2208 78.6716 30.529C78.3933 26.9882 78.3057 23.4959 80.4498 20.3016C82.8935 16.6606 86.3898 15.4847 90.4952 15.6927C98.4517 16.104 102.113 22.5436 100.46 30.3625C99.7153 33.8829 98.2531 37.2899 96.7986 40.6118C95.3449 43.9337 95.8024 45.79 99.2181 47.1256C101.216 47.8709 103.265 48.4722 105.349 48.9257C110.435 50.1128 111.569 51.3148 112.051 56.4795C112.156 57.5915 112.068 58.7168 112.068 60L112.067 60Z" fill="#D6AA65"/>
</svg>
