<svg width="54" height="54" viewBox="0 0 54 54" fill="none" xmlns="http://www.w3.org/2000/svg">
<path d="M35.0882 19.794H35.988V28.7912C35.988 29.0298 36.0828 29.2588 36.2515 29.4275C36.4201 29.5962 36.6491 29.691 36.8877 29.691H37.4926C37.1476 30.7879 36.6836 31.8442 36.1085 32.84C35.9373 33.1364 35.949 33.5043 36.139 33.7887L39.7379 39.1871C39.9066 39.4349 40.1869 39.5831 40.4866 39.5831C40.7862 39.5831 41.0666 39.4349 41.2353 39.1871L44.8342 33.7887C45.0242 33.5043 45.0358 33.1364 44.8647 32.84C44.2895 31.8443 43.8252 30.7883 43.4806 29.691H44.0855C44.324 29.691 44.553 29.5962 44.7217 29.4275C44.8904 29.2588 44.9852 29.0298 44.9852 28.7912V19.794H45.8849C46.1235 19.794 46.3524 19.6992 46.5211 19.5305C46.6898 19.3618 46.7846 19.1328 46.7846 18.8943V7.19783H47.6844C48.1812 7.19823 48.5837 7.6007 48.5841 8.09755V16.1951C48.5841 16.6919 48.987 17.0948 49.4838 17.0948C49.9807 17.0948 50.3835 16.6919 50.3835 16.1951V8.09755C50.3827 7.38179 50.098 6.69573 49.5923 6.18962C49.0862 5.68353 48.4001 5.39915 47.6843 5.39835H46.7846V2.69917C46.7846 2.416 46.6512 2.14929 46.4243 1.97939C44.7112 0.694485 42.6278 0 40.4865 0C38.3453 0 36.2618 0.694474 34.5488 1.97939C34.3218 2.14929 34.1885 2.416 34.1885 2.69917V18.8942C34.1885 19.1328 34.2833 19.3618 34.452 19.5305C34.6207 19.6992 34.8496 19.7939 35.0882 19.7939L35.0882 19.794ZM42.3587 31.8452C42.5636 32.3223 42.7893 32.7915 43.0327 33.2466L41.3863 35.7164V34.1893C41.3863 33.6924 40.9834 33.2895 40.4866 33.2895C39.9897 33.2895 39.5868 33.6924 39.5868 34.1893V35.7164L37.9404 33.2466C38.5449 32.1159 39.0273 30.9237 39.3795 29.6906H41.5939H41.5935C41.8032 30.4241 42.0586 31.1439 42.3587 31.8452H42.3587Z" fill="url(#paint0_linear_107_1135)"/>
<path d="M35.0882 19.794H35.988V28.7912C35.988 29.0298 36.0828 29.2588 36.2515 29.4275C36.4201 29.5962 36.6491 29.691 36.8877 29.691H37.4926C37.1476 30.7879 36.6836 31.8442 36.1085 32.84C35.9373 33.1364 35.949 33.5043 36.139 33.7887L39.7379 39.1871C39.9066 39.4349 40.1869 39.5831 40.4866 39.5831C40.7862 39.5831 41.0666 39.4349 41.2353 39.1871L44.8342 33.7887C45.0242 33.5043 45.0358 33.1364 44.8647 32.84C44.2895 31.8443 43.8252 30.7883 43.4806 29.691H44.0855C44.324 29.691 44.553 29.5962 44.7217 29.4275C44.8904 29.2588 44.9852 29.0298 44.9852 28.7912V19.794H45.8849C46.1235 19.794 46.3524 19.6992 46.5211 19.5305C46.6898 19.3618 46.7846 19.1328 46.7846 18.8943V7.19783H47.6844C48.1812 7.19823 48.5837 7.6007 48.5841 8.09755V16.1951C48.5841 16.6919 48.987 17.0948 49.4838 17.0948C49.9807 17.0948 50.3835 16.6919 50.3835 16.1951V8.09755C50.3827 7.38179 50.098 6.69573 49.5923 6.18962C49.0862 5.68353 48.4001 5.39915 47.6843 5.39835H46.7846V2.69917C46.7846 2.416 46.6512 2.14929 46.4243 1.97939C44.7112 0.694485 42.6278 0 40.4865 0C38.3453 0 36.2618 0.694474 34.5488 1.97939C34.3218 2.14929 34.1885 2.416 34.1885 2.69917V18.8942C34.1885 19.1328 34.2833 19.3618 34.452 19.5305C34.6207 19.6992 34.8496 19.7939 35.0882 19.7939L35.0882 19.794ZM42.3587 31.8452C42.5636 32.3223 42.7893 32.7915 43.0327 33.2466L41.3863 35.7164V34.1893C41.3863 33.6924 40.9834 33.2895 40.4866 33.2895C39.9897 33.2895 39.5868 33.6924 39.5868 34.1893V35.7164L37.9404 33.2466C38.5449 32.1159 39.0273 30.9237 39.3795 29.6906H41.5939H41.5935C41.8032 30.4241 42.0586 31.1439 42.3587 31.8452H42.3587Z" fill="url(#paint1_linear_107_1135)" fill-opacity="0.7"/>
<path d="M22.5915 37.5993C22.7469 38.17 23.0855 38.6741 23.5554 39.0332C24.0254 39.3927 24.6002 39.5875 25.1918 39.5879H28.7907C29.5061 39.5859 30.1913 39.3007 30.697 38.795C31.2027 38.2893 31.4879 37.6041 31.4899 36.8887V2.69916C31.4879 1.98381 31.2027 1.29858 30.697 0.792879C30.1913 0.287182 29.5061 0.0020051 28.7907 0H25.1918C24.6002 0.000401637 24.0254 0.195204 23.5554 0.554292C23.0855 0.913781 22.7469 1.41746 22.5915 1.9882C2.18158 5.30309 2.19495 34.2919 22.5915 37.5988V37.5993ZM29.6904 32.3897L27.891 32.3901C27.3941 32.3901 26.9913 31.9872 26.9913 31.4904C26.9913 30.9935 27.3941 30.5907 27.891 30.5907H29.6904V32.3897ZM29.6904 27.8911L27.891 27.8915C27.3941 27.8915 26.9913 27.4886 26.9913 26.9918C26.9913 26.4949 27.3941 26.092 27.891 26.092H29.6904V27.8911ZM29.6904 18.8938L27.891 18.8942C27.3941 18.8942 26.9913 18.4914 26.9913 17.9945C26.9913 17.4977 27.3941 17.0948 27.891 17.0948H29.6904V18.8938ZM29.6904 14.3952L27.891 14.3956C27.3941 14.3956 26.9913 13.9927 26.9913 13.4959C26.9913 12.999 27.3941 12.5962 27.891 12.5962H29.6904V14.3952ZM26.0915 8.09714H29.6904V9.89659L26.0915 9.89699C25.5999 9.88936 25.2055 9.4889 25.2055 8.99727C25.2055 8.50564 25.5999 8.10517 26.0915 8.09754V8.09714ZM26.0915 21.593H29.6904V23.3925L26.0915 23.3929C25.5999 23.3852 25.2055 22.9848 25.2055 22.4931C25.2055 22.0015 25.5999 21.601 26.0915 21.5934V21.593ZM20.5044 9.09558V9.09598C21.3399 8.73689 22.3003 8.82004 23.0618 9.31769C23.8233 9.81495 24.2852 10.6608 24.2921 11.5702V28.0172C24.2849 28.9265 23.8229 29.772 23.0614 30.2697C22.2998 30.7669 21.3399 30.8501 20.504 30.491C11.2187 26.4723 11.22 13.1134 20.5044 9.09603L20.5044 9.09558Z" fill="url(#paint2_linear_107_1135)"/>
<path d="M22.5915 37.5993C22.7469 38.17 23.0855 38.6741 23.5554 39.0332C24.0254 39.3927 24.6002 39.5875 25.1918 39.5879H28.7907C29.5061 39.5859 30.1913 39.3007 30.697 38.795C31.2027 38.2893 31.4879 37.6041 31.4899 36.8887V2.69916C31.4879 1.98381 31.2027 1.29858 30.697 0.792879C30.1913 0.287182 29.5061 0.0020051 28.7907 0H25.1918C24.6002 0.000401637 24.0254 0.195204 23.5554 0.554292C23.0855 0.913781 22.7469 1.41746 22.5915 1.9882C2.18158 5.30309 2.19495 34.2919 22.5915 37.5988V37.5993ZM29.6904 32.3897L27.891 32.3901C27.3941 32.3901 26.9913 31.9872 26.9913 31.4904C26.9913 30.9935 27.3941 30.5907 27.891 30.5907H29.6904V32.3897ZM29.6904 27.8911L27.891 27.8915C27.3941 27.8915 26.9913 27.4886 26.9913 26.9918C26.9913 26.4949 27.3941 26.092 27.891 26.092H29.6904V27.8911ZM29.6904 18.8938L27.891 18.8942C27.3941 18.8942 26.9913 18.4914 26.9913 17.9945C26.9913 17.4977 27.3941 17.0948 27.891 17.0948H29.6904V18.8938ZM29.6904 14.3952L27.891 14.3956C27.3941 14.3956 26.9913 13.9927 26.9913 13.4959C26.9913 12.999 27.3941 12.5962 27.891 12.5962H29.6904V14.3952ZM26.0915 8.09714H29.6904V9.89659L26.0915 9.89699C25.5999 9.88936 25.2055 9.4889 25.2055 8.99727C25.2055 8.50564 25.5999 8.10517 26.0915 8.09754V8.09714ZM26.0915 21.593H29.6904V23.3925L26.0915 23.3929C25.5999 23.3852 25.2055 22.9848 25.2055 22.4931C25.2055 22.0015 25.5999 21.601 26.0915 21.5934V21.593ZM20.5044 9.09558V9.09598C21.3399 8.73689 22.3003 8.82004 23.0618 9.31769C23.8233 9.81495 24.2852 10.6608 24.2921 11.5702V28.0172C24.2849 28.9265 23.8229 29.772 23.0614 30.2697C22.2998 30.7669 21.3399 30.8501 20.504 30.491C11.2187 26.4723 11.22 13.1134 20.5044 9.09603L20.5044 9.09558Z" fill="url(#paint3_linear_107_1135)" fill-opacity="0.7"/>
<path d="M52.184 12.5962V49.0355C52.1727 50.1529 51.5698 51.1808 50.6003 51.7363C49.6306 52.2914 48.4393 52.2914 47.4697 51.7359C46.5001 51.1808 45.8972 50.1529 45.886 49.0355V45.8865C45.8844 45.39 45.4827 44.9884 44.9863 44.9868H5.39839V16.1956C5.39919 15.5003 5.66991 14.8323 6.15432 14.3331C6.38608 13.4747 6.68411 12.6356 7.04482 11.8231C6.06235 12.0577 5.18758 12.6168 4.56209 13.4105C3.9367 14.2042 3.5973 15.1855 3.5989 16.1957V44.9869H0.899725C0.403272 44.9885 0.00160408 45.3901 0 45.8866V49.0356C0.00241003 50.3475 0.524575 51.6046 1.452 52.5321C2.37944 53.4596 3.63664 53.9818 4.94849 53.9841H48.5857C49.9702 54.0946 51.3386 53.6242 52.3624 52.6855C53.3867 51.7468 53.9739 50.4246 53.984 49.0356V16.1952C53.9828 14.7793 53.3164 13.4466 52.1846 12.5963L52.184 12.5962Z" fill="url(#paint4_linear_107_1135)"/>
<path d="M52.184 12.5962V49.0355C52.1727 50.1529 51.5698 51.1808 50.6003 51.7363C49.6306 52.2914 48.4393 52.2914 47.4697 51.7359C46.5001 51.1808 45.8972 50.1529 45.886 49.0355V45.8865C45.8844 45.39 45.4827 44.9884 44.9863 44.9868H5.39839V16.1956C5.39919 15.5003 5.66991 14.8323 6.15432 14.3331C6.38608 13.4747 6.68411 12.6356 7.04482 11.8231C6.06235 12.0577 5.18758 12.6168 4.56209 13.4105C3.9367 14.2042 3.5973 15.1855 3.5989 16.1957V44.9869H0.899725C0.403272 44.9885 0.00160408 45.3901 0 45.8866V49.0356C0.00241003 50.3475 0.524575 51.6046 1.452 52.5321C2.37944 53.4596 3.63664 53.9818 4.94849 53.9841H48.5857C49.9702 54.0946 51.3386 53.6242 52.3624 52.6855C53.3867 51.7468 53.9739 50.4246 53.984 49.0356V16.1952C53.9828 14.7793 53.3164 13.4466 52.1846 12.5963L52.184 12.5962Z" fill="url(#paint5_linear_107_1135)" fill-opacity="0.7"/>
<defs>
<linearGradient id="paint0_linear_107_1135" x1="31.3483" y1="-7.0684" x2="54.4025" y2="-6.41188" gradientUnits="userSpaceOnUse">
<stop stop-color="#F3EBBB"/>
<stop offset="1" stop-color="#B78D31"/>
</linearGradient>
<linearGradient id="paint1_linear_107_1135" x1="39.4458" y1="-55.9818" x2="73.0857" y2="-50.1128" gradientUnits="userSpaceOnUse">
<stop offset="0.0252352" stop-color="white" stop-opacity="0.1"/>
<stop offset="0.448382" stop-color="#C06500" stop-opacity="0.7"/>
<stop offset="0.763925" stop-color="#E47B00" stop-opacity="0.3"/>
<stop offset="1" stop-color="white" stop-opacity="0"/>
</linearGradient>
<linearGradient id="paint2_linear_107_1135" x1="3.04489" y1="-7.06925" x2="37.4611" y2="-5.60485" gradientUnits="userSpaceOnUse">
<stop stop-color="#F3EBBB"/>
<stop offset="1" stop-color="#B78D31"/>
</linearGradient>
<linearGradient id="paint3_linear_107_1135" x1="15.1453" y1="-55.9886" x2="63.6486" y2="-43.3447" gradientUnits="userSpaceOnUse">
<stop offset="0.0252352" stop-color="white" stop-opacity="0.1"/>
<stop offset="0.448382" stop-color="#C06500" stop-opacity="0.7"/>
<stop offset="0.763925" stop-color="#E47B00" stop-opacity="0.3"/>
<stop offset="1" stop-color="white" stop-opacity="0"/>
</linearGradient>
<linearGradient id="paint4_linear_107_1135" x1="-9.46735" y1="4.29156" x2="66.8373" y2="11.0894" gradientUnits="userSpaceOnUse">
<stop stop-color="#F3EBBB"/>
<stop offset="1" stop-color="#B78D31"/>
</linearGradient>
<linearGradient id="paint5_linear_107_1135" x1="17.5247" y1="-47.827" x2="106.551" y2="0.763446" gradientUnits="userSpaceOnUse">
<stop offset="0.0252352" stop-color="white" stop-opacity="0.1"/>
<stop offset="0.448382" stop-color="#C06500" stop-opacity="0.7"/>
<stop offset="0.763925" stop-color="#E47B00" stop-opacity="0.3"/>
<stop offset="1" stop-color="white" stop-opacity="0"/>
</linearGradient>
</defs>
</svg>
