<svg width="51" height="50" viewBox="0 0 51 50" fill="none" xmlns="http://www.w3.org/2000/svg">
<path d="M45.9351 41.3953H40.9297V49.9999H45.9434C47.0833 49.9954 48.1751 49.539 48.9791 48.7308C49.7831 47.9226 50.2337 46.8283 50.232 45.6885V45.6698C50.2299 44.5332 49.776 43.4435 48.97 42.6416C48.1639 41.8397 47.0721 41.3916 45.9351 41.3953V41.3953Z" fill="#D6AA65"/>
<path d="M6.06723 25.9302H8.60458V2.20984H6.06011C4.44927 2.21399 2.90605 2.85768 1.76989 3.99928C0.633735 5.14088 -0.00296634 6.68653 1.03909e-05 8.29747V28.9379C1.44809 27.0509 3.6885 25.9405 6.06723 25.9305V25.9302Z" fill="#D6AA65"/>
<path d="M46.2148 10.5755L26.0464 10.4414V32.0961C26.053 32.3083 25.9733 32.5147 25.825 32.6671C25.6772 32.8199 25.4741 32.9063 25.2615 32.9067H16.1918C15.7371 32.9104 15.3629 32.5504 15.3488 32.0961V25.3287C15.3488 25.2606 15.3197 25.1891 15.3197 25.116C15.3197 25.0429 15.3488 24.9711 15.3488 24.9034V20.6775C15.3488 20.6094 15.3197 20.538 15.3197 20.4649C15.3197 20.3918 15.3488 20.32 15.3488 20.2523V16.0264C15.3488 15.9583 15.3197 15.8868 15.3197 15.8137C15.3197 15.7406 15.3488 15.6688 15.3488 15.6011V11.3752C15.3488 11.3071 15.3197 11.2357 15.3197 11.1626C15.3197 11.0895 15.3488 11.0177 15.3488 10.95V10.3711L10.2325 10.3362V26.7784C10.2325 27.2281 9.81392 27.5575 9.36417 27.5575H6.06807C2.72212 27.5575 0 30.3111 0 33.6567V33.67C0 37.0188 2.7134 39.7667 6.06106 39.7667H45.9376C47.5626 39.753 49.1199 40.4187 50.2328 41.6031V14.6402C50.2328 12.3985 48.4238 10.5751 46.2158 10.5751L46.2148 10.5755ZM46.8597 28.8367C46.8597 29.286 46.4951 29.6507 46.0458 29.6507C45.5965 29.6507 45.2319 29.286 45.2319 28.8367V28.3716H43.7369L46.3531 33.7113C46.5392 34.0984 46.633 34.5236 46.6272 34.953V37.2529C46.6272 37.7026 46.2626 38.0668 45.8133 38.0668C45.3639 38.0668 44.9993 37.7026 44.9993 37.2529V34.953C45.0051 34.7728 44.9686 34.5934 44.8922 34.4298L41.9225 28.3717H32.501L29.5255 34.4298C29.4487 34.5938 29.4122 34.7732 29.418 34.9543V37.2533V37.2529C29.418 37.7026 29.0534 38.0668 28.604 38.0668C28.1547 38.0668 27.7901 37.7026 27.7901 37.2529V34.9543C27.7843 34.5237 27.8785 34.098 28.0654 33.7101L30.6862 28.3717H29.1854V28.8368C29.1854 29.2861 28.8208 29.6507 28.3715 29.6507C27.9221 29.6507 27.5575 29.2861 27.5575 28.8368V26.2483C27.5575 25.799 27.9221 25.4344 28.3715 25.4344C28.8208 25.4344 29.1854 25.799 29.1854 26.2483V26.7437H31.4885L34.3382 20.948C33.7062 20.267 33.3362 19.3837 33.2942 18.4551C33.2523 17.527 33.5405 16.6138 34.1082 15.8779C34.6759 15.1425 35.4861 14.6316 36.3947 14.4373V13.1591C36.3947 12.7093 36.7593 12.3452 37.2087 12.3452C37.658 12.3452 38.0226 12.7094 38.0226 13.1591V14.4373C38.93 14.6316 39.739 15.1408 40.3066 15.8749C40.8743 16.6087 41.1638 17.5203 41.1235 18.4472C41.0832 19.3741 40.7165 20.2569 40.0874 20.9392L42.9358 26.7436H45.2319V26.2482C45.2319 25.7989 45.5965 25.4343 46.0458 25.4343C46.4952 25.4343 46.8598 25.7989 46.8598 26.2482L46.8597 28.8367Z" fill="#D6AA65"/>
<path d="M24.4184 0H16.9766V5.69768H18.0231C18.4724 5.69768 18.837 6.0623 18.837 6.51163C18.837 6.96096 18.4724 7.32557 18.0231 7.32557H16.9766V10.3489H18.0231C18.4724 10.3489 18.837 10.7135 18.837 11.1628C18.837 11.6121 18.4724 11.9768 18.0231 11.9768H16.9766V15.0001H18.0231C18.4724 15.0001 18.837 15.3647 18.837 15.814C18.837 16.2633 18.4724 16.628 18.0231 16.628H16.9766V19.6513H18.0231C18.4724 19.6513 18.837 20.0159 18.837 20.4652C18.837 20.9145 18.4724 21.2791 18.0231 21.2791H16.9766V24.3024H18.0231C18.4724 24.3024 18.837 24.6671 18.837 25.1164C18.837 25.5657 18.4724 25.9303 18.0231 25.9303H16.9766V31.2791H24.4184V0Z" fill="#D6AA65"/>
<path d="M37.2096 20.5614C37.8171 20.5614 38.3998 20.3201 38.8292 19.8907C39.259 19.4609 39.5002 18.8783 39.5002 18.2708C39.5002 17.6632 39.259 17.0806 38.8292 16.6512C38.3997 16.2214 37.8171 15.9801 37.2096 15.9801C36.6021 15.9801 36.0194 16.2214 35.59 16.6512C35.1602 17.0806 34.9189 17.6632 34.9189 18.2708C34.9198 18.8783 35.1611 19.4605 35.5905 19.8899C36.0199 20.3193 36.6025 20.561 37.2096 20.5614L37.2096 20.5614Z" fill="#D6AA65"/>
<path d="M37.209 22.1965C36.6865 22.1994 36.1687 22.0972 35.6866 21.8958L33.3037 26.7442H41.1218L38.7414 21.8954C38.2563 22.098 37.7347 22.2006 37.209 22.1965V22.1965Z" fill="#D6AA65"/>
</svg>
