<svg width="33" height="50" viewBox="0 0 33 50" fill="none" xmlns="http://www.w3.org/2000/svg">
<path d="M25.3228 33.871H19.3549C19.3549 27.3985 20.8821 18.7003 24.0177 13.0386C24.7146 11.7824 25.0581 10.3353 25.0581 8.79511C25.0581 3.93701 21.0936 2.3171e-08 16.2355 2.3171e-08C11.3774 -0.000348749 7.42572 3.93666 7.42572 8.79475C7.42572 10.3349 7.63045 11.782 8.32733 13.0383C11.4388 18.6595 12.9033 27.4456 12.9033 33.8707H7.09027C3.17593 33.8707 0 37.0497 0 40.9641V43.5481H32.2584V40.9643C32.2584 37.0497 29.2408 33.8706 25.323 33.8706L25.3228 33.871Z" fill="#D6AA65"/>
<path d="M3.22559 46.4436C3.22559 48.0469 4.50632 50 6.11098 50H25.5451C27.1499 50 29.0322 48.0469 29.0322 46.4436V45.1611H3.22568L3.22559 46.4436Z" fill="#D6AA65"/>
</svg>
