<svg width="50" height="50" viewBox="0 0 50 50" fill="none" xmlns="http://www.w3.org/2000/svg">
<path d="M34.8214 12.5H50V1.78571C50 0.803571 49.1964 0 48.2143 0H16.0714V12.5H27.6786C28.6607 12.5 29.4643 13.3036 29.4643 14.2857C29.4643 15.2679 28.6607 16.0714 27.6786 16.0714H16.0714V27.6786C16.0714 28.6607 15.2679 29.4643 14.2857 29.4643C13.3036 29.4643 12.5 28.6607 12.5 27.6786V0H1.78571C0.803571 0 0 0.803571 0 1.78571V48.2143C0 49.1964 0.803571 50 1.78571 50H12.5V34.8214C12.5 33.8393 13.3036 33.0357 14.2857 33.0357C15.2679 33.0357 16.0714 33.8393 16.0714 34.8214V50H48.2143C49.1964 50 50 49.1964 50 48.2143V16.0714H34.8214C33.8393 16.0714 33.0357 15.2679 33.0357 14.2857C33.0357 13.3036 33.8393 12.5 34.8214 12.5ZM35.1606 20.3392C36.1607 19.3212 37.8212 19.4284 38.9466 20.5536L41.9464 23.5534C43.0711 24.6782 43.1604 26.3392 42.1608 27.3393L28.6965 40.8036C28.4821 41.0356 28.1963 41.1967 27.875 41.2859L21.8749 42.8034C21.2587 42.9505 20.6169 42.7902 20.1605 42.339C19.7141 41.8926 19.5355 41.2496 19.6961 40.6246L21.214 34.6245C21.3033 34.3029 21.4639 34.0175 21.6963 33.803L35.1606 20.3392Z" fill="#D6AA65"/>
<path d="M24.5525 35.9817L23.8916 38.6069L26.5168 37.946L34.124 30.3387L32.1598 28.3745L24.5525 35.9817Z" fill="#D6AA65"/>
<path d="M34.6787 25.8571L36.9468 23.5895L38.9111 25.5538L36.643 27.8214L34.6787 25.8571Z" fill="#D6AA65"/>
</svg>
