<svg width="50" height="50" viewBox="0 0 50 50" fill="none" xmlns="http://www.w3.org/2000/svg">
<path fill-rule="evenodd" clip-rule="evenodd" d="M42.8571 35.7143V40.4763H38.0951V38.0955H33.3331V40.4763H28.5714V38.0955H23.8094V40.4763H19.0473V38.0955H14.2857V40.4763H9.52367V35.7143H11.9045V30.9527H9.52367V26.1906H11.9045V21.4286H9.52367V16.6669H11.9045V11.9049H9.52367V7.14286H14.2857L7.14286 0L0 7.14286H4.76163V11.9049H2.38082V16.6669H4.76163V21.4286H2.38082V26.1906H4.76163V30.9527H2.38082V35.7143H4.76163V40.4763H0V45.2384H4.76163V50H9.52367V45.2384H14.2857V47.6192H19.0473V45.2384H23.8094V47.6192H28.5714V45.2384H33.3331V47.6192H38.0951V45.2384H42.8571V50L50 42.8571L42.8571 35.7143Z" fill="#D6AA65"/>
</svg>
