<svg width="36" height="50" viewBox="0 0 36 50" fill="none" xmlns="http://www.w3.org/2000/svg">
<path d="M32.1431 20.2378H10.7149V11.9046C10.7149 7.9596 13.9127 4.76183 17.8577 4.76183C21.8026 4.76183 25.0004 7.9596 25.0004 11.9046H29.7618C29.7626 5.32958 24.4326 0 17.8573 0C11.2819 0 5.95268 5.32997 5.95268 11.9046V20.2378H3.57177C1.59968 20.2378 0 21.8367 0 23.8095V46.4282C0 48.4003 1.59888 50 3.57177 50H32.1427C34.1148 50 35.7145 48.4011 35.7145 46.4282L35.7141 23.8085C35.7141 21.8365 34.1152 20.2376 32.1427 20.2376L32.1431 20.2378ZM21.7266 42.8565H13.9887L15.4252 34.2361C14.5552 33.5265 13.9887 32.4601 13.9887 31.2498C13.9887 29.113 15.7209 27.3808 17.8577 27.3808C19.9944 27.3808 21.7266 29.113 21.7266 31.2498C21.7266 32.4596 21.1593 33.5265 20.2902 34.2361L21.7266 42.8565Z" fill="#D6AA65"/>
</svg>
