<svg width="63" height="50" viewBox="0 0 63 50" fill="none" xmlns="http://www.w3.org/2000/svg">
<path d="M51.035 26.8388C50.168 26.8388 49.3686 27.3182 48.9631 28.0838L45.5905 34.4389L41.4347 22.2641C41.1171 21.344 40.269 20.7141 39.2953 20.6803C38.294 20.6516 37.4307 21.2173 37.0521 22.1129L34.2014 28.8843L29.7011 1.92815C29.4948 0.795669 28.4329 -0.0643927 27.3448 0.00378925C26.1928 0.0300365 25.2298 0.786294 25.073 1.92815L21.0997 33.2122L17.877 16.4214C17.6876 15.4283 16.8806 14.6693 15.8764 14.5401C14.8908 14.4089 13.9001 14.9371 13.4624 15.8509L8.19017 26.8386H0V31.5244H9.66684C10.5688 31.5244 11.3894 31.0089 11.78 30.1938L14.6151 24.2871L19.1853 48.0992C19.3971 49.2061 20.3649 50 21.4868 50H21.5492C22.6968 49.9693 23.6536 49.1119 23.8093 47.9743L27.7213 17.234L31.0008 37.4756C31.1851 38.4949 32.0201 39.2732 33.0484 39.3864C34.0922 39.4871 35.063 38.9227 35.4654 37.9643L38.9874 29.6054L42.9063 41.0802C43.2082 41.962 44.0082 42.5846 44.9383 42.6576C45.872 42.7095 46.7571 42.2458 47.1965 41.4188L52.4454 31.5248H62.5044V26.8386L51.035 26.8388Z" fill="#D6AA65"/>
</svg>
