<svg width="46" height="46" viewBox="0 0 46 46" fill="none" xmlns="http://www.w3.org/2000/svg">
<path d="M27.4989 14.0037L25.1648 14C22.5424 14 20.8477 15.7387 20.8477 18.4298V20.4723H18.5008C18.298 20.4723 18.1338 20.6367 18.1338 20.8395V23.7988C18.1338 24.0016 18.2982 24.1658 18.5008 24.1658H20.8477V31.633C20.8477 31.8358 21.0119 32 21.2147 32H24.2768C24.4796 32 24.6438 31.8356 24.6438 31.633V24.1658H27.3879C27.5907 24.1658 27.7549 24.0016 27.7549 23.7988L27.756 20.8395C27.756 20.7421 27.7173 20.6489 27.6486 20.5799C27.5798 20.511 27.4862 20.4723 27.3888 20.4723H24.6438V18.7409C24.6438 17.9087 24.8421 17.4862 25.9262 17.4862L27.4986 17.4857C27.7012 17.4857 27.8654 17.3212 27.8654 17.1186V14.3708C27.8654 14.1683 27.7014 14.0041 27.4989 14.0037Z" fill="black"/>
<circle cx="23" cy="23" r="22" stroke="black" stroke-width="2"/>
</svg>
