<svg width="46" height="46" viewBox="0 0 46 46" fill="none" xmlns="http://www.w3.org/2000/svg">
<path d="M17.182 15H29.818C31.018 15 31.9998 15.8884 31.9998 17.1818V29.8182C31.9998 31.1116 31.018 32 29.818 32H17.182C15.9817 32 15 31.1116 15 29.8182V17.1818C15 15.8884 15.9817 15 17.182 15ZM27.3838 16.8888C26.9627 16.8888 26.6187 17.233 26.6187 17.6542V19.486C26.6187 19.907 26.9627 20.2514 27.3838 20.2514H29.3052C29.7262 20.2514 30.0706 19.907 30.0706 19.486V17.6542C30.0706 17.233 29.7262 16.8888 29.3052 16.8888H27.3838ZM30.0786 22.1892H28.5824C28.7239 22.6514 28.8006 23.141 28.8006 23.6476C28.8006 26.4752 26.4344 28.7674 23.5161 28.7674C20.5981 28.7674 18.2323 26.4752 18.2323 23.6476C18.2323 23.1407 18.3087 22.6513 18.4504 22.1892H16.8891V29.3703C16.8891 29.7419 17.1932 30.0461 17.565 30.0461H29.4031C29.7749 30.0461 30.0789 29.7421 30.0789 29.3703V22.1892H30.0786ZM23.516 20.1549C21.6305 20.1549 20.1018 21.6359 20.1018 23.4631C20.1018 25.2902 21.6305 26.7713 23.516 26.7713C25.4016 26.7713 26.9305 25.2902 26.9305 23.4631C26.9305 21.6359 25.4018 20.1549 23.516 20.1549Z" fill="black"/>
<circle cx="23" cy="23" r="22" stroke="black" stroke-width="2"/>
</svg>
