<svg width="46" height="46" viewBox="0 0 46 46" fill="none" xmlns="http://www.w3.org/2000/svg">
<path d="M31.9695 16.2971L28.6913 30.2481C28.537 30.9052 27.8235 31.2437 27.2385 30.9317L23.0924 28.7216L21.1318 32.0334C20.5984 32.9361 19.2486 32.5446 19.2486 31.4891V27.7989C19.2486 27.5136 19.3642 27.2415 19.5635 27.0423L27.6435 19.0779C27.6371 18.9784 27.5342 18.8922 27.4315 18.965L17.7896 25.8941L14.55 24.1685C13.7916 23.7636 13.8237 22.6286 14.6078 22.2769L30.5813 15.0892C31.3462 14.744 32.1691 15.4543 31.9698 16.2971L31.9695 16.2971Z" fill="black"/>
<circle cx="23" cy="23" r="22" stroke="black" stroke-width="2"/>
</svg>
