<svg width="46" height="46" viewBox="0 0 46 46" fill="none" xmlns="http://www.w3.org/2000/svg">
<path d="M23.0022 14H22.9978C18.0354 14 14 18.0365 14 23C14 24.9688 14.6345 26.7935 15.7134 28.2751L14.5918 31.6186L18.0511 30.5128C19.4742 31.4555 21.1719 32 23.0022 32C27.9646 32 32 27.9624 32 23C32 18.0376 27.9646 14 23.0022 14ZM28.2391 26.7091C28.022 27.3223 27.1602 27.8307 26.4729 27.9792C26.0026 28.0794 25.3884 28.1593 23.3206 27.302C20.6757 26.2063 18.9725 23.5186 18.8398 23.3442C18.7126 23.1699 17.771 21.9211 17.771 20.6296C17.771 19.3381 18.4269 18.7092 18.6912 18.4392C18.9084 18.2176 19.2673 18.1164 19.6115 18.1164C19.7229 18.1164 19.823 18.122 19.913 18.1265C20.1774 18.1378 20.3101 18.1535 20.4845 18.5709C20.7016 19.094 21.2304 20.3855 21.2934 20.5182C21.3575 20.651 21.4216 20.831 21.3316 21.0054C21.2473 21.1854 21.173 21.2652 21.0402 21.4183C20.9075 21.5712 20.7815 21.6883 20.6487 21.8525C20.5272 21.9954 20.39 22.1484 20.543 22.4128C20.696 22.6715 21.2248 23.5344 22.0033 24.2274C23.0079 25.1217 23.8224 25.4075 24.1137 25.529C24.3309 25.619 24.5896 25.5976 24.7483 25.4289C24.9496 25.2118 25.1982 24.8518 25.4514 24.4974C25.6314 24.2431 25.8586 24.2116 26.0971 24.3016C26.3401 24.386 27.626 25.0216 27.8904 25.1532C28.1547 25.286 28.3291 25.349 28.3932 25.4604C28.4562 25.5718 28.4562 26.0949 28.2391 26.7091Z" fill="black"/>
<circle cx="23" cy="23" r="22" stroke="black" stroke-width="2"/>
</svg>
