<svg width="35" height="50" viewBox="0 0 35 50" fill="none" xmlns="http://www.w3.org/2000/svg">
<path d="M8.142 9.28997H26.3683L26.3687 5.61931H20.3605V0H14.0281V5.61931H8.1416L8.142 9.28997Z" fill="#D6AA65"/>
<path d="M32.6827 9.07019H29.5397V10.8747C29.5397 11.7503 28.83 12.46 27.9543 12.46H6.55724C5.68155 12.46 4.97188 11.7503 4.97188 10.8747V9.07019H1.70718C0.764327 9.07019 0 9.83447 0 10.7774V48.2928C0 49.2357 0.764278 50 1.70718 50H32.6829C33.6257 50 34.39 49.2357 34.39 48.2928L34.3904 10.7774C34.3904 9.83452 33.6262 9.07019 32.683 9.07019H32.6827ZM9.73931 42.5094C9.13262 43.1195 8.11839 43.1256 7.50407 42.5228L4.72318 39.7923L6.94465 37.53L8.60142 39.1566L12.92 34.8128L15.1686 37.0484L9.73931 42.5094ZM9.73931 25.677C9.13262 26.2871 8.11839 26.2932 7.50407 25.6903L4.72318 22.9598L6.94465 20.6972L8.60142 22.3237L12.92 17.98L15.1686 20.2156L9.73931 25.677ZM29.9232 45.2914H18.8588V42.1205H29.9232V45.2914ZM29.9232 37.3506H18.8588V34.1797H29.9232V37.3506ZM29.9232 28.1884H18.8588V25.0175H29.9232V28.1884ZM29.9232 20.2476H18.8588V17.0767H29.9232V20.2476Z" fill="#D6AA65"/>
</svg>
