<svg width="60" height="50" viewBox="0 0 60 50" fill="none" xmlns="http://www.w3.org/2000/svg">
<path d="M41.2822 7.27579C38.6556 7.27579 37.0483 8.30358 37.0483 8.86357C37.0483 9.42319 38.6556 10.4513 41.2822 10.4513C43.9091 10.4513 45.5164 9.42319 45.5164 8.86357C45.5164 8.30359 43.9091 7.27579 41.2822 7.27579Z" fill="#D6AA65"/>
<path d="M19.0532 18.9194C16.4266 18.9194 14.8193 19.9476 14.8193 20.5072C14.8193 21.0668 16.4266 22.095 19.0532 22.095C21.6801 22.095 23.2874 21.0668 23.2874 20.5072C23.2874 19.9476 21.6801 18.9194 19.0532 18.9194Z" fill="#D6AA65"/>
<path d="M30.1679 13.0972C27.5414 13.0972 25.9341 14.1254 25.9341 14.685C25.9341 15.245 27.5414 16.2728 30.1679 16.2728C32.7948 16.2728 34.4021 15.245 34.4021 14.685C34.4021 14.1254 32.7948 13.0972 30.1679 13.0972Z" fill="#D6AA65"/>
<path d="M22.229 31.2097V50L59.2778 30.9747V12.1854L22.229 31.2097Z" fill="#D6AA65"/>
<path d="M38.1022 0L1.24023 18.9282L21.1746 29.3703L58.0365 10.4412L38.1022 0ZM19.0533 24.2123C15.433 24.2123 12.7022 22.6195 12.7022 20.5076C12.7022 18.3957 15.433 16.8029 19.0533 16.8029C22.674 16.8029 25.4044 18.3957 25.4044 20.5076C25.4044 22.6195 22.674 24.2123 19.0533 24.2123ZM30.1678 18.3907C26.5475 18.3907 23.8167 16.7975 23.8167 14.6856C23.8167 12.574 26.5475 10.9809 30.1678 10.9809C33.7885 10.9809 36.5189 12.574 36.5189 14.6856C36.5189 16.7975 33.7885 18.3907 30.1678 18.3907ZM41.2823 12.5687C37.6619 12.5687 34.9311 10.9756 34.9311 8.86399C34.9311 6.75206 37.6619 5.15893 41.2823 5.15893C44.9029 5.15893 47.6334 6.75206 47.6334 8.86399C47.6334 10.9756 44.9029 12.5687 41.2823 12.5687Z" fill="#D6AA65"/>
<path d="M0 39.449L20.1122 49.9837V31.2034L0 20.6687V39.449Z" fill="#D6AA65"/>
</svg>
