<svg width="16" height="35" viewBox="0 0 16 35" fill="none" xmlns="http://www.w3.org/2000/svg">
<path d="M11.96 0.535997V30.152C11.96 31.208 12.056 32.008 12.248 32.552C12.472 33.096 12.84 33.464 13.352 33.656C13.864 33.848 14.6 33.976 15.56 34.04V35C14.888 34.936 13.944 34.904 12.728 34.904C11.544 34.872 10.296 34.856 8.984 34.856C7.512 34.856 6.056 34.872 4.616 34.904C3.176 34.904 2.024 34.936 1.16 35V34.04C2.408 33.976 3.384 33.832 4.088 33.608C4.792 33.384 5.272 32.968 5.528 32.36C5.784 31.72 5.912 30.792 5.912 29.576V8.216C5.912 7.096 5.752 6.28 5.432 5.768C5.144 5.224 4.6 4.872 3.8 4.712C3.032 4.552 1.944 4.472 0.536 4.472V3.464C3.48 3.08 5.832 2.632 7.592 2.12C9.352 1.576 10.808 1.048 11.96 0.535997Z" fill="url(#paint0_linear_107_234)"/>
<path d="M11.96 0.535997V30.152C11.96 31.208 12.056 32.008 12.248 32.552C12.472 33.096 12.84 33.464 13.352 33.656C13.864 33.848 14.6 33.976 15.56 34.04V35C14.888 34.936 13.944 34.904 12.728 34.904C11.544 34.872 10.296 34.856 8.984 34.856C7.512 34.856 6.056 34.872 4.616 34.904C3.176 34.904 2.024 34.936 1.16 35V34.04C2.408 33.976 3.384 33.832 4.088 33.608C4.792 33.384 5.272 32.968 5.528 32.36C5.784 31.72 5.912 30.792 5.912 29.576V8.216C5.912 7.096 5.752 6.28 5.432 5.768C5.144 5.224 4.6 4.872 3.8 4.712C3.032 4.552 1.944 4.472 0.536 4.472V3.464C3.48 3.08 5.832 2.632 7.592 2.12C9.352 1.576 10.808 1.048 11.96 0.535997Z" fill="url(#paint1_linear_107_234)" fill-opacity="0.7"/>
<defs>
<linearGradient id="paint0_linear_107_234" x1="-4.33209" y1="-17.5714" x2="22.7164" y2="-16.8262" gradientUnits="userSpaceOnUse">
<stop stop-color="#FCF1B5"/>
<stop offset="0.9375" stop-color="#FFBF31"/>
</linearGradient>
<linearGradient id="paint1_linear_107_234" x1="5.16791" y1="-76.8857" x2="44.7089" y2="-70.2115" gradientUnits="userSpaceOnUse">
<stop offset="0.0252352" stop-color="white" stop-opacity="0.1"/>
<stop offset="0.448382" stop-color="#C06500" stop-opacity="0.7"/>
<stop offset="0.763925" stop-color="#E47B00" stop-opacity="0.3"/>
<stop offset="1" stop-color="white" stop-opacity="0"/>
</linearGradient>
</defs>
</svg>
