<svg width="22" height="35" viewBox="0 0 22 35" fill="none" xmlns="http://www.w3.org/2000/svg">
<path d="M11.096 0.343997C12.984 0.343997 14.664 0.663998 16.136 1.304C17.64 1.912 18.824 2.808 19.688 3.992C20.584 5.176 21.032 6.648 21.032 8.408C21.032 10.104 20.6 11.752 19.736 13.352C18.904 14.952 17.752 16.6 16.28 18.296C14.84 19.96 13.208 21.752 11.384 23.672C9.592 25.592 7.736 27.736 5.816 30.104H17.192C18.12 30.104 18.872 29.848 19.448 29.336C20.024 28.792 20.392 27.816 20.552 26.408H21.656C21.624 26.76 21.592 27.192 21.56 27.704C21.528 28.216 21.512 28.696 21.512 29.144C21.512 29.816 21.528 30.696 21.56 31.784C21.624 32.84 21.72 33.912 21.848 35H9.608C7.496 35 5.784 34.984 4.472 34.952C3.16 34.92 1.88 34.936 0.632 35V34.04C1.848 32.888 3.112 31.608 4.424 30.2C5.736 28.76 7 27.224 8.216 25.592C9.432 23.928 10.52 22.2 11.48 20.408C12.472 18.616 13.24 16.776 13.784 14.888C14.36 12.968 14.648 11.048 14.648 9.128C14.648 7.208 14.392 5.704 13.88 4.616C13.368 3.496 12.696 2.696 11.864 2.216C11.032 1.704 10.12 1.448 9.128 1.448C8.2 1.448 7.304 1.64 6.44 2.024C5.608 2.408 5 2.984 4.616 3.752C5.512 3.976 6.232 4.376 6.776 4.952C7.352 5.528 7.64 6.232 7.64 7.064C7.64 8.024 7.304 8.792 6.632 9.368C5.96 9.912 5.16 10.184 4.232 10.184C3.24 10.184 2.472 9.864 1.928 9.224C1.384 8.584 1.112 7.848 1.112 7.016C1.112 6.28 1.32 5.576 1.736 4.904C2.152 4.2 2.664 3.56 3.272 2.984C4.264 2.088 5.432 1.432 6.776 1.016C8.12 0.567998 9.56 0.343997 11.096 0.343997Z" fill="url(#paint0_linear_107_257)"/>
<path d="M11.096 0.343997C12.984 0.343997 14.664 0.663998 16.136 1.304C17.64 1.912 18.824 2.808 19.688 3.992C20.584 5.176 21.032 6.648 21.032 8.408C21.032 10.104 20.6 11.752 19.736 13.352C18.904 14.952 17.752 16.6 16.28 18.296C14.84 19.96 13.208 21.752 11.384 23.672C9.592 25.592 7.736 27.736 5.816 30.104H17.192C18.12 30.104 18.872 29.848 19.448 29.336C20.024 28.792 20.392 27.816 20.552 26.408H21.656C21.624 26.76 21.592 27.192 21.56 27.704C21.528 28.216 21.512 28.696 21.512 29.144C21.512 29.816 21.528 30.696 21.56 31.784C21.624 32.84 21.72 33.912 21.848 35H9.608C7.496 35 5.784 34.984 4.472 34.952C3.16 34.92 1.88 34.936 0.632 35V34.04C1.848 32.888 3.112 31.608 4.424 30.2C5.736 28.76 7 27.224 8.216 25.592C9.432 23.928 10.52 22.2 11.48 20.408C12.472 18.616 13.24 16.776 13.784 14.888C14.36 12.968 14.648 11.048 14.648 9.128C14.648 7.208 14.392 5.704 13.88 4.616C13.368 3.496 12.696 2.696 11.864 2.216C11.032 1.704 10.12 1.448 9.128 1.448C8.2 1.448 7.304 1.64 6.44 2.024C5.608 2.408 5 2.984 4.616 3.752C5.512 3.976 6.232 4.376 6.776 4.952C7.352 5.528 7.64 6.232 7.64 7.064C7.64 8.024 7.304 8.792 6.632 9.368C5.96 9.912 5.16 10.184 4.232 10.184C3.24 10.184 2.472 9.864 1.928 9.224C1.384 8.584 1.112 7.848 1.112 7.016C1.112 6.28 1.32 5.576 1.736 4.904C2.152 4.2 2.664 3.56 3.272 2.984C4.264 2.088 5.432 1.432 6.776 1.016C8.12 0.567998 9.56 0.343997 11.096 0.343997Z" fill="url(#paint1_linear_107_257)" fill-opacity="0.7"/>
<defs>
<linearGradient id="paint0_linear_107_257" x1="-5.5597" y1="-17.5714" x2="31.4295" y2="-16.1769" gradientUnits="userSpaceOnUse">
<stop stop-color="#FCF1B5"/>
<stop offset="0.9375" stop-color="#FFBF31"/>
</linearGradient>
<linearGradient id="paint1_linear_107_257" x1="7.4403" y1="-76.8857" x2="60.272" y2="-64.6827" gradientUnits="userSpaceOnUse">
<stop offset="0.0252352" stop-color="white" stop-opacity="0.1"/>
<stop offset="0.448382" stop-color="#C06500" stop-opacity="0.7"/>
<stop offset="0.763925" stop-color="#E47B00" stop-opacity="0.3"/>
<stop offset="1" stop-color="white" stop-opacity="0"/>
</linearGradient>
</defs>
</svg>
