<svg width="24" height="36" viewBox="0 0 24 36" fill="none" xmlns="http://www.w3.org/2000/svg">
<path d="M12.008 0.343997C14.856 0.343997 17.16 0.983997 18.92 2.264C20.68 3.512 21.56 5.224 21.56 7.4C21.56 8.968 21.08 10.376 20.12 11.624C19.192 12.84 17.96 13.88 16.424 14.744C14.92 15.576 13.304 16.2 11.576 16.616C13.688 16.712 15.624 17.112 17.384 17.816C19.176 18.488 20.616 19.48 21.704 20.792C22.824 22.104 23.384 23.736 23.384 25.688C23.384 27.288 23.016 28.712 22.28 29.96C21.544 31.176 20.552 32.216 19.304 33.08C18.056 33.912 16.616 34.552 14.984 35C13.384 35.448 11.688 35.672 9.896 35.672C8.36 35.672 7.032 35.512 5.912 35.192C4.792 34.872 3.88 34.504 3.176 34.088C2.408 33.576 1.816 33.016 1.4 32.408C1.016 31.768 0.824 31.112 0.824 30.44C0.824 29.544 1.112 28.808 1.688 28.232C2.296 27.624 3.112 27.32 4.136 27.32C5.096 27.32 5.896 27.608 6.536 28.184C7.208 28.728 7.544 29.48 7.544 30.44C7.544 31.272 7.288 31.96 6.776 32.504C6.296 33.016 5.688 33.352 4.952 33.512C5.24 33.832 5.768 34.12 6.536 34.376C7.336 34.632 8.232 34.76 9.224 34.76C10.984 34.76 12.44 34.36 13.592 33.56C14.744 32.76 15.608 31.688 16.184 30.344C16.792 28.968 17.096 27.432 17.096 25.736C17.096 23.208 16.504 21.192 15.32 19.688C14.136 18.152 12.552 17.288 10.568 17.096C10.152 17.32 9.784 17.512 9.464 17.672C9.176 17.832 8.872 17.912 8.552 17.912C8.264 17.912 8.024 17.848 7.832 17.72C7.64 17.56 7.544 17.368 7.544 17.144C7.544 16.888 7.656 16.696 7.88 16.568C8.136 16.408 8.472 16.328 8.888 16.328C9.112 16.328 9.336 16.36 9.56 16.424C9.816 16.456 10.072 16.488 10.328 16.52C12.024 15.88 13.256 14.856 14.024 13.448C14.792 12.008 15.176 10.328 15.176 8.408C15.176 6.168 14.728 4.44 13.832 3.224C12.936 2.008 11.688 1.4 10.088 1.4C9.192 1.4 8.296 1.576 7.4 1.928C6.536 2.28 5.88 2.824 5.432 3.56C6.328 3.816 7.048 4.232 7.592 4.808C8.168 5.352 8.456 6.04 8.456 6.872C8.456 7.832 8.12 8.6 7.448 9.176C6.776 9.72 5.992 9.992 5.096 9.992C4.072 9.992 3.288 9.672 2.744 9.032C2.2 8.392 1.928 7.656 1.928 6.824C1.928 6.056 2.12 5.336 2.504 4.664C2.92 3.96 3.464 3.336 4.136 2.792C5.032 1.992 6.168 1.384 7.544 0.967998C8.952 0.551997 10.44 0.343997 12.008 0.343997Z" fill="url(#paint0_linear_107_258)"/>
<path d="M12.008 0.343997C14.856 0.343997 17.16 0.983997 18.92 2.264C20.68 3.512 21.56 5.224 21.56 7.4C21.56 8.968 21.08 10.376 20.12 11.624C19.192 12.84 17.96 13.88 16.424 14.744C14.92 15.576 13.304 16.2 11.576 16.616C13.688 16.712 15.624 17.112 17.384 17.816C19.176 18.488 20.616 19.48 21.704 20.792C22.824 22.104 23.384 23.736 23.384 25.688C23.384 27.288 23.016 28.712 22.28 29.96C21.544 31.176 20.552 32.216 19.304 33.08C18.056 33.912 16.616 34.552 14.984 35C13.384 35.448 11.688 35.672 9.896 35.672C8.36 35.672 7.032 35.512 5.912 35.192C4.792 34.872 3.88 34.504 3.176 34.088C2.408 33.576 1.816 33.016 1.4 32.408C1.016 31.768 0.824 31.112 0.824 30.44C0.824 29.544 1.112 28.808 1.688 28.232C2.296 27.624 3.112 27.32 4.136 27.32C5.096 27.32 5.896 27.608 6.536 28.184C7.208 28.728 7.544 29.48 7.544 30.44C7.544 31.272 7.288 31.96 6.776 32.504C6.296 33.016 5.688 33.352 4.952 33.512C5.24 33.832 5.768 34.12 6.536 34.376C7.336 34.632 8.232 34.76 9.224 34.76C10.984 34.76 12.44 34.36 13.592 33.56C14.744 32.76 15.608 31.688 16.184 30.344C16.792 28.968 17.096 27.432 17.096 25.736C17.096 23.208 16.504 21.192 15.32 19.688C14.136 18.152 12.552 17.288 10.568 17.096C10.152 17.32 9.784 17.512 9.464 17.672C9.176 17.832 8.872 17.912 8.552 17.912C8.264 17.912 8.024 17.848 7.832 17.72C7.64 17.56 7.544 17.368 7.544 17.144C7.544 16.888 7.656 16.696 7.88 16.568C8.136 16.408 8.472 16.328 8.888 16.328C9.112 16.328 9.336 16.36 9.56 16.424C9.816 16.456 10.072 16.488 10.328 16.52C12.024 15.88 13.256 14.856 14.024 13.448C14.792 12.008 15.176 10.328 15.176 8.408C15.176 6.168 14.728 4.44 13.832 3.224C12.936 2.008 11.688 1.4 10.088 1.4C9.192 1.4 8.296 1.576 7.4 1.928C6.536 2.28 5.88 2.824 5.432 3.56C6.328 3.816 7.048 4.232 7.592 4.808C8.168 5.352 8.456 6.04 8.456 6.872C8.456 7.832 8.12 8.6 7.448 9.176C6.776 9.72 5.992 9.992 5.096 9.992C4.072 9.992 3.288 9.672 2.744 9.032C2.2 8.392 1.928 7.656 1.928 6.824C1.928 6.056 2.12 5.336 2.504 4.664C2.92 3.96 3.464 3.336 4.136 2.792C5.032 1.992 6.168 1.384 7.544 0.967998C8.952 0.551997 10.44 0.343997 12.008 0.343997Z" fill="url(#paint1_linear_107_258)" fill-opacity="0.7"/>
<defs>
<linearGradient id="paint0_linear_107_258" x1="-5.73508" y1="-17.5714" x2="32.6725" y2="-16.0677" gradientUnits="userSpaceOnUse">
<stop stop-color="#FCF1B5"/>
<stop offset="0.9375" stop-color="#FFBF31"/>
</linearGradient>
<linearGradient id="paint1_linear_107_258" x1="7.76492" y1="-76.8857" x2="62.4116" y2="-63.778" gradientUnits="userSpaceOnUse">
<stop offset="0.0252352" stop-color="white" stop-opacity="0.1"/>
<stop offset="0.448382" stop-color="#C06500" stop-opacity="0.7"/>
<stop offset="0.763925" stop-color="#E47B00" stop-opacity="0.3"/>
<stop offset="1" stop-color="white" stop-opacity="0"/>
</linearGradient>
</defs>
</svg>
