<svg width="25" height="35" viewBox="0 0 25 35" fill="none" xmlns="http://www.w3.org/2000/svg">
<path d="M18.624 0.343997L18.528 1.88L1.584 26.168L3.504 22.904H24.864V27.08H0.528V26.12L18.624 0.343997ZM19.392 0.343997V29.912C19.392 31.064 19.472 31.928 19.632 32.504C19.824 33.08 20.16 33.464 20.64 33.656C21.152 33.848 21.904 33.976 22.896 34.04V35C22.16 34.936 21.2 34.904 20.016 34.904C18.832 34.872 17.552 34.856 16.176 34.856C14.928 34.856 13.696 34.872 12.48 34.904C11.296 34.904 10.288 34.936 9.456 35V34.04C10.704 33.976 11.648 33.848 12.288 33.656C12.928 33.464 13.36 33.08 13.584 32.504C13.808 31.928 13.92 31.064 13.92 29.912V7.976L18.624 0.343997H19.392Z" fill="url(#paint0_linear_107_259)"/>
<path d="M18.624 0.343997L18.528 1.88L1.584 26.168L3.504 22.904H24.864V27.08H0.528V26.12L18.624 0.343997ZM19.392 0.343997V29.912C19.392 31.064 19.472 31.928 19.632 32.504C19.824 33.08 20.16 33.464 20.64 33.656C21.152 33.848 21.904 33.976 22.896 34.04V35C22.16 34.936 21.2 34.904 20.016 34.904C18.832 34.872 17.552 34.856 16.176 34.856C14.928 34.856 13.696 34.872 12.48 34.904C11.296 34.904 10.288 34.936 9.456 35V34.04C10.704 33.976 11.648 33.848 12.288 33.656C12.928 33.464 13.36 33.08 13.584 32.504C13.808 31.928 13.92 31.064 13.92 29.912V7.976L18.624 0.343997H19.392Z" fill="url(#paint1_linear_107_259)" fill-opacity="0.7"/>
<defs>
<linearGradient id="paint0_linear_107_259" x1="-4.73508" y1="-17.5714" x2="33.6725" y2="-16.0677" gradientUnits="userSpaceOnUse">
<stop stop-color="#FCF1B5"/>
<stop offset="0.9375" stop-color="#FFBF31"/>
</linearGradient>
<linearGradient id="paint1_linear_107_259" x1="8.76492" y1="-76.8857" x2="63.4116" y2="-63.778" gradientUnits="userSpaceOnUse">
<stop offset="0.0252352" stop-color="white" stop-opacity="0.1"/>
<stop offset="0.448382" stop-color="#C06500" stop-opacity="0.7"/>
<stop offset="0.763925" stop-color="#E47B00" stop-opacity="0.3"/>
<stop offset="1" stop-color="white" stop-opacity="0"/>
</linearGradient>
</defs>
</svg>
