<svg width="38" height="50" viewBox="0 0 38 50" fill="none" xmlns="http://www.w3.org/2000/svg">
<path d="M0 50H31.7712L37.5001 44.2711V0H0.000356944L0 50ZM31.9364 44.4367H35.7864L31.9364 48.2868V44.4367ZM26.1824 6.57808L30.0136 12.2561H27.4606V21.074H24.9045V12.2568H22.3514L26.1824 6.57808ZM18.6371 8.95529L22.4683 14.6333H19.9153V21.0748H17.3592V14.6333H14.8069L18.6371 8.95529ZM11.328 11.5278L15.1592 17.2058H12.6062V21.0736H10.05V17.2058H7.497L11.328 11.5278ZM5.92344 27.3205H31.5768V30.5525H5.92344V27.3205ZM5.92344 32.001H31.5768V35.2331H5.92344V32.001ZM5.92344 36.6822H31.5768V39.9143H5.92344V36.6822Z" fill="#D6AA65"/>
</svg>
