<svg width="49" height="50" viewBox="0 0 49 50" fill="none" xmlns="http://www.w3.org/2000/svg">
<path fill-rule="evenodd" clip-rule="evenodd" d="M11.8462 10.6886H36.5138V12.4482H11.8462V10.6886ZM11.8462 16.875H36.5138V18.6345H11.8462V16.875ZM11.8462 23.0613H36.5138V24.8209H11.8462V23.0613ZM42.729 32.1405V8.3496C42.729 6.05269 41.79 3.96479 40.2771 2.45188C38.7642 0.938979 36.6763 0 34.3794 0H5.63086V32.1403L42.729 32.1405Z" fill="#D6AA65"/>
<path fill-rule="evenodd" clip-rule="evenodd" d="M42.7287 33.0195H0V50H48.3593V33.0195H42.7281H42.7287ZM16.4831 44.5647H13.2687L12.8267 46.0718H9.94376L13.375 36.9409H16.4511L19.8843 46.0718H16.9313L16.4825 44.5647H16.4831ZM15.8918 42.5899L14.8822 39.3075L13.8788 42.5899H15.8918ZM26.6363 42.3412L29.1086 43.0895C28.9426 43.7823 28.6813 44.361 28.3241 44.8266C27.967 45.2921 27.5229 45.643 26.9934 45.8792C26.464 46.1174 25.79 46.2342 24.9736 46.2342C23.9807 46.2342 23.1685 46.0897 22.5416 45.8027C21.9121 45.5136 21.368 45.0057 20.9109 44.2783C20.4558 43.5514 20.2264 42.6223 20.2264 41.4891C20.2264 39.9778 20.6281 38.8146 21.4319 38.0045C22.2353 37.1923 23.3728 36.7864 24.8422 36.7864C25.9922 36.7864 26.8961 37.0179 27.5549 37.484C28.2142 37.9495 28.7028 38.6638 29.0216 39.6268L26.5299 40.1819C26.443 39.9033 26.3514 39.6991 26.2555 39.5697C26.0984 39.355 25.9047 39.189 25.6774 39.0722C25.448 38.9555 25.1924 38.8979 24.9097 38.8979C24.2718 38.8979 23.7806 39.155 23.4407 39.6698C23.1836 40.0526 23.0537 40.6522 23.0537 41.4702C23.0537 42.4841 23.2087 43.1774 23.5151 43.5534C23.8235 43.93 24.2551 44.1169 24.8096 44.1169C25.3495 44.1169 25.758 43.9661 26.034 43.6619C26.3105 43.3597 26.51 42.9198 26.6357 42.3416L26.6363 42.3412ZM29.8382 36.9415H38.4141V39.197H35.5353V46.0724H32.7142V39.197H29.8376V36.9415H29.8382Z" fill="#D6AA65"/>
</svg>
