<svg width="52" height="50" viewBox="0 0 52 50" fill="none" xmlns="http://www.w3.org/2000/svg">
<path d="M50.4037 49.9998C51.072 49.9998 51.6136 49.4583 51.6136 48.7903V46.371C51.6136 45.7027 51.0721 45.1612 50.4037 45.1612H48.3876V17.3384C48.3876 16.6705 47.846 16.1289 47.1781 16.1289H37.0974V1.20949C37.0974 0.541574 36.5555 0 35.8875 0H15.7261C15.0582 0 14.5162 0.541535 14.5162 1.20949V8.06456H4.43551C3.76759 8.06456 3.22602 8.6061 3.22602 9.27406V45.1614H1.20988C0.541584 45.1614 0 45.7029 0 46.3712V48.7905C0 49.4584 0.541536 50 1.20988 50L50.4037 49.9998ZM12.9035 41.9352H8.06456V37.0967H12.9031L12.9035 41.9352ZM12.9035 33.8707H8.06456V29.0321H12.9031L12.9035 33.8707ZM12.9035 25.8061H8.06456V20.9676H12.9031L12.9035 25.8061ZM12.9035 17.7416H8.06456V12.903H12.9031L12.9035 17.7416ZM24.1939 41.9352H19.355V37.0967H24.1935L24.1939 41.9352ZM24.1939 33.8707H19.355V29.0321H24.1935L24.1939 33.8707ZM24.1939 25.8061H19.355V20.9676H24.1935L24.1939 25.8061ZM24.1939 17.7416H19.355V12.903H24.1935L24.1939 17.7416ZM24.1939 9.677H19.355V4.83845H24.1935L24.1939 9.677ZM32.2584 41.9352H27.4195V37.0967H32.2581L32.2584 41.9352ZM32.2584 33.8707H27.4195V29.0321H32.2581L32.2584 33.8707ZM32.2584 25.8061H27.4195V20.9676H32.2581L32.2584 25.8061ZM32.2584 17.7416H27.4195V12.903H32.2581L32.2584 17.7416ZM32.2584 9.677H27.4195V4.83845H32.2581L32.2584 9.677ZM43.5488 41.9352H38.7095V37.0967H43.5481L43.5488 41.9352ZM43.5488 33.8707H38.7095V29.0321H43.5481L43.5488 33.8707ZM43.5488 25.8061H38.7095V20.9676H43.5481L43.5488 25.8061Z" fill="#D6AA65"/>
</svg>
